<mxfile host="drawio-plugin" modified="2023-03-31T09:06:34.662Z" agent="5.0 (X11; Linux x86_64) AppleWebKit/537.36 (KHTML, like Gecko) Chrome/104.0.5112.102 Safari/537.36" etag="D6dt8el_uI59xv_w1evF" version="20.5.3" type="embed"><diagram name="Страница 1" id="wB9U61gZ4HKNXLQpU-NL"><mxGraphModel dx="466" dy="723" grid="1" gridSize="10" guides="1" tooltips="1" connect="1" arrows="1" fold="1" page="1" pageScale="1" pageWidth="827" pageHeight="1169" math="0" shadow="0"><root><mxCell id="0"/><mxCell id="1" parent="0"/><mxCell id="VgrS8OwGai8g259zXTvy-1" value="" style="shape=image;verticalLabelPosition=bottom;labelBackgroundColor=default;verticalAlign=top;aspect=fixed;imageAspect=0;image=data:image/png,iVBORw0KGgoAAAANSUhEUgAAAuwAAAKNCAYAAAB7iD4DAAAAAXNSR0IArs4c6QAAIABJREFUeF7snX/oV9d9/0++a2nNSDqmsEDAGfeH/lGQBgkBzeonLZq/WpYUXacuGym1MSbDLtLWovEHcRmxk6YacDQdrcpiaB3tH20MLDpUcBAE/yhV6KwE3EpR1mRBBy37fHnd5rxzP9f3+33Pvffc+zo/Hm8o9fP5nHter9fj9TrnPO+5531zx+zs7KwZ6DMzM2NOnz49kDXMQKBfAqtWrTKnTp3q10jCvTMfJJzcDENjPsgw6YQMgQEJ3DGkYL/jjjvMgPcHA2LEVI4EqOduWYdfN35cHRYB6jmsfOANBFIjgGBPLaPEMxgBFuhuqOHXjR9Xh0WAeg4rH3gDgdQIINhTyyjxDEaABbobavh148fVYRGgnsPKB95AIDUCCPbUMko8gxFgge6GGn7d+HF1WASo57DygTcQSI0Agj21jBLPYARYoLuhhl83flwdFgHqOax84A0EUiOAYE8to8QzGAEW6G6o4deNH1eHRYB6DisfeAOB1Agg2FPLKPEMRoAFuhtq+HXjx9VhEaCew8oH3kAgNQII9tQySjyDEWCB7oYaft34cXVYBKjnsPKBNxBIjQCCPbWMEs9gBFigu6GGXzd+XB0WAeo5rHzgDQRSI4BgTy2jxDMYARbobqjh140fV4dFgHoOKx94A4HUCCDYazJ6+fJls27dOrNt2zazfv362vyfO3fOXL161altbWcODW7dumX2799vNm/ebObPn+9wBU18EWCB7kYSfnP5yVjeunVr8csDBw6YefPmTQUsc9OPf/zj0TXdsuF29dDzm5tXYbSinsPIA15AIFUCCHaPmW0q7n2Y3rt3r5FF9NixYwh2H0Ab9MEC3QDWmKbwa8/vxo0bxabAihUrzI4dO9p31OBKjfmtgXvqTaln9RTgAASSJoBgr0lveZF69NFHR7tZd999t3nxxRfNmjVrCrEsH1lAT548Wfx7z549xUIqf9uwYUPxu02bNhU7Z/KRnbR33nmn+PfPfvYzc/z4cXP9+nWzcuXK4ne2X7trLsJ8586dc/o5ceLEqO9ly5YVfSxZsmRsRDaO1atXmzfeeMNcvHhx5I/s5FkBYP0/e/ZsIQaq1z344INFDLKrX/XH7giO81X+JjcWEt/hw4fNyy+/XPhw9OjRwZ5G+B7JLNDdiMJvLr/qDvuFCxfGjhc7D8k4Ks8rtn11/rDjTuYkGbPy//JErjxf2fEu15bnrLr5rVsFpHU19ZxWPokGAqERQLC3EOznz58vxLF8ysdlqjtQdqGUxXDp0qWjHbFnn322EOy2HxHZk24MRBzbhVj6WbBgwRybrjvstn8ruG2fIpjLNyJiT24E5GakHKO9riy86/yxNzF2F7AsHORmxtX30AaN9YcFultm4Ocm2O3Nf3m8VMeWy/xh+6neGIwb73IE8JFHHpmzi88O+/R6p567zQdcDQEI1Mwxs7Ozs0NBinFCG7cQyhn18q66FaTVBa0qSOXna9eumX379pnt27cX2O1ZVenPimQR8PLzkSNHiv+/dOnSaOe9vBMm17uK3qpv5UX7ySefNI8//vjonL5te+jQodtuEMSmFd7y77I/4x7Tl+OyTxDsrno15qHq0JedGOvZV+w++oGfm2AfN17kxr18JMZl/qg+NbPfyxk33sc9/UKwI9h9jHv6gAAE2hFgh73FDrsV2jdv3py4A1V9bG3NyCPmV155pRDaZcFePkZi29pjLgsXLix25O0j8LJQ9iHY165daz71qU/dRkKEwvLly2/70q0V+1V/qrv/0uE4wW6FA4K93aBN5SoEu5tgHzdeqoJ92vxhb5RtP+Ub7rIH9sag2pf9PYIdwZ7K3EMcEIiRAIK9J8Euu1+TxPS4t0G4ild7vtSeLZWz4C5fOm2yw15GUrdIl/351re+ZZ5++uk5X4RDsMc4LQzjM4Ldn2CfNn+Uj+aVv5dS9+Yre53dOBBvm7wxa5gqCscK9RxOLvAEAikSQLD3KNjrzrCXd9innUEtnzG1u+32WvnyZxPBfs8998w5ZuN6hr28uJfFwTR/xMfyY/uqcHC9SQl14LFAd8sM/PwJdpcz7HaHfdoZ9upufHnTQf6GYJ9c89Rzt/mAqyEAgZqneJxhnw5o2kJYPRJTPipi3whTfpNL9S0xZcEu/y4/qp72lpjyG2EmnSevRmXjkLPq8iYY+Z/9Epq0rXtLTHU3rvzYvPqGmvLfyjYQ7ExHZQIInPaCXb7nYseZnSvK33Upzx/VcTdtvMvfym+JkZ+rQl+Owtm5rO5d8TlVPPWcU7aJFQLDE2CHfXjmKhbrjraoOBW5URbobgmEXzd+XB0WAeo5rHzgDQRSI4BgTySj474IakOTHfAXXnjBfPWrX3X+L7YmgqXXMFigu+GFXzd+XB0WAeo5rHzgDQRSI4BgTy2jxDMYARbobqjh140fV4dFgHoOKx94A4HUCCDYU8so8QxGgAW6G2r4dePH1WERoJ7DygfeQCA1Agj21DJKPIMRYIHuhhp+3fhxdVgEqOew8oE3EEiNAII9tYwSz2AEWKC7oYZfN35cHRYB6jmsfOANBFIjgGBPLaPEMxgBFuhuqOHXjR9Xh0WAeg4rH3gDgdQIINhTyyjxDEaABbobavh148fVYRGgnsPKB95AIDUCCPbUMko8gxFgge6GGn7d+HF1WASo57DygTcQSI0Agj21jBLPYARYoLuhhl83flwdFgHqOax84A0EUiMwqGC/7777zNWrV1NjSDyZEli0aJH5xS9+kWn03cNmPujOkB7CIcB8EE4u8AQCKRIYVLBr7UBo2U2xYIjpAwLUVbdq0OKnZbcbLa4OnQB1FXqG8A8CcRNAsMedP7xXJMAC3Q2+Fj8tu91ocXXoBKir0DOEfxCImwCCPe784b0iARbobvC1+GnZ7UaLq0MnQF2FniH8g0DcBBDscecP7xUJsEB3g6/FT8tuN1pcHToB6ir0DOEfBOImgGCPO394r0iABbobfC1+Wna70eLq0AlQV6FnCP8gEDcBBHvc+cN7RQIs0N3ga/HTstuNFleHToC6Cj1D+AeBuAkg2OPOH94rEmCB7gZfi5+W3W60uDp0AtRV6BnCPwjETQDBHnf+8F6RAAt0N/ha/LTsdqPF1aEToK5CzxD+QSBuAgj2uPOH94oEWKC7wdfip2W3Gy2uDp0AdRV6hvAPAnETQLDHnT+8VyTAAt0NvhY/LbvdaHF16ASoq9AzhH8QiJtAMIL98uXLZt26debixYtziJ49e9asWLHC2L9v27bNrF+/vmhz7tw5s3LlSrNp0yZz4MABM2/evLHZqJtIx/U9La1i9+rVqyM/+i6BW7dumf3795vNmzeb+fPn921OpX+bS5vvshPT/qbi7PtG6+pK07cQbH/jG98wX/ziF81dd93VeFwyH0zOoOt8MG1eu3HjRjF/ydy6Y8eOEMoleh+YD6JPIQFAIGgCwQl2K8hlUdq6dWshjI8dO2auX79eCHr7dyvi1qxZU/x9mpD1OZE2Ffc+sr93797i5qQuTh+2QuwDwR5iVup9+uhHP1o0evLJJ82ePXtuE+7TxmV1nDEffMDbx3yAYK+v36YtfK4zTW3THgIQSJ9AsIJd0JeF2oIFC0aCffny5cW/77nnHicRWzeRlsXBo48+WtwoyOfuu+82L774orE3BfI72ZU6efJk8XcRIbI7JUJ6w4YNxe/sbr/8W/p55513it//7Gc/M8ePHy9uPOSpgHyqNxuyEO/cuXNOPydOnBj1vWzZsqKPJUuWjK1MG8fq1avNG2+8UTytKD99sIu09b/69MJe9+CDDxZPLGRXv+qPfYoxzlf5m83Z4cOHzcsvv1z4cPTo0dqnEVVRXmYqnMWPcbvvmkO0rq40fQvB9je/+U3zta99zXzoQx8yv/nNb8yXvvSlOcK9iWBnPvjdU8Q284Hd5Cg/tZB5QTZD2GH3N1KYD/yxpCcIQOB2AtEJ9scff7wQzL/85S+nitdyqHUT6TjBfv78+aJ/+ZR39qs7f2WhuXTp0tFj5meffbYQ7LYfEdmTbgxkIb5w4UIh5EWUlm9O5AbBdUfN9m8Ft+1TBHP5RsQu/HIzUo7RXlcW3nX+2JsYu/BbHvZmxtX3cTdnjz32WHFDZG8OEOzxTWF/8Ad/MLpplaMxv/3tb4ubSKkPuSGenZ2devM57ghcuSaZDyYfkRs339gnlpcuXSrmGztO46us8DyuW2fC8xiPIACBmAgEK9gnPQIvn3F3XWzqJtJpC1tVkFYFe1WQys/Xrl0z+/btM9u3by9qwZ6vl11jK5JFwMvPR44cKf7fLqDSvipMXUXvpGME0qccSxBxU91tO3To0G03COXdzKo/4x6ll+OyTxDsrno15kmDoyzYRVSUOXEkpt2UMjMzY06fPt3u4h6v+vCHP2w+//nPm+9973vOgp35YMUoI23mA/tU0o5/jsT4L/C6dca/RXqEAARyIhCcYC8L8vIRECtGJTmyK/zaa685H5Oom0in7XzfvHlzzpezxrWV4x/ljxx1eeWVV4qd4bJgLx8jse1tjAsXLix25Mt9WeHeZoGWnXkrcsTW2rVrzac+9anbaluEdXUxl0b22qo/1d1/aTtOsFvfEex600ld3Q/hWXmHXezJ05uvfOUr5stf/rLTDjvzwQdzS5f5AMHef7WHMN76jxILEICAFoHgBHv5EXgZSnX32P7sco69biJtK9inHVcpi+VJO+yTkm7Pb9sz7nIW3OVLp0122KexrfpV9udb3/qWefrpp+ecfe1DsMt3AqxAYYe93fRQV/ftenW/yp5hl7FQFur2rTFNz7AzH/zuC/Zt5gMr2O0xM3bY3evYtaX2eHP1k3YQgECcBKIV7HZnV4Rd3Zca6ybSLoK97gx7eYd9mh35Mpk9BmJ32+218uXPJoLd3sTYYzauZ9jLN0tlET7NH/Gx/Hq4cV8eLR9vmTRMOMPufwKpq3v/Fuf2+JGPfKT4hRwNkx316usdfQp25oPbs8kZ9r4rfG7/2uNt2GixBgEIDE0gasFud4nqvoBaN5E2EezloyL2DSzlNzdU3xJTFuzybytM5d/T3hJTPg5UvmbaFy9tHPaLePLl3PI5/7q3xFSfbpSP8FTfUFP+W9mGD8EuX2Atx8xbYtpNC3V1365X96t8vIfd9YmbeMV8MDc31Sdu5fHPW2Lc69i1pfZ4c/WTdhCAQJwEghHsfeLLZSLVeEd8n3kLve/Q6wr/xldQ6FxCr3v8o66oAQhAYHgCCHZjzO7du4cn38KivMtads3feuut266WYzD/9E//ZL761a+O3gQTUlzy9pjvf//7xes4qx85XytPG+TtIXWfP/7jPzZ/9Vd/VddskL+HLvzwr52wCmncTCvkuvngc5/7XPEGKJfPc88959KMNlMIhD7eSB4EIBA3AQS7MeYzn/lM3Fl83/sf/ehHc+JIJa5yUPI+eQS7W7mGLiC0/Kuzm+K4mVYxv/d7v2f+5V/+xa2oaDWRQF1dgQ4CEIBAFwII9i70uDZrAqEv0PjXboc966Im+NYEQh9vrQPjQghAIAgCCPYg0oATMRIIfYHGPwR7jOMqVp9DH2+xcsVvCEDgdwQQ7FQCBFoSCH2Bxj8Ee8vS5rIWBEIfby1C4hIIQCAgAgj2gJKBK3ERCH2Bxj8Ee1wjKm5vQx9vcdPFewhAAMFODUCgJYHQF2j8Q7C3LG0ua0Eg9PHWIiQugQAEAiKAYA8oGbgSF4HQF2j8Q7DHNaLi9jb08RY3XbyHAAQQ7NQABFoSCH2Bxj8Ee8vS5rIWBEIfby1C4hIIQCAgAoML9oBixxUIdCYwOzvbuY++OghdQIh/fCCQEoGQ54OUOBMLBHIkMLhg15jQQhcuORZeCjGHXlf4xw57CuMslhhCH2+xcMRPCEBgwto1O6CC1prQtOxSdGkTCL2u8A/BnvYIDCu60MdbWLTwBgIQaEqAHfamxGgPgfcJhL5A4x+CncE6HIHQx9twJLAEAQj0QQDB3gdV+syCQOgLNP4h2LMYiIEEGfp4CwQTbkAAAi0JINhbguMyCIS+QOMfgp1ROhyB0MfbcCSwBAEI9EEAwd4HVfrMgkDoCzT+IdizGIiBBBn6eAsEE25AAAItCSDYW4LjMgiEvkDjH4KdUTocgdDH23AksAQBCPRBAMHeB1X6zIJA6As0/iHYsxiIgQQZ+ngLBBNuQAACLQkg2FuC4zIIhL5A4x+CnVE6HIHQx9twJLAEAQj0QQDB3gdV+syCQOgLNP4h2LMYiIEEGfp4CwQTbkAAAi0JBCXY9+7da3bu3DknlGXLlpnjx48Xv3vmmWfMSy+9ZJYsWVL8fPnyZbNu3Trz2GOPmR07dkxEUDeRSj+7du0yBw8eNPPnz5/Yj/i3ePFis379+pa43S67ceOG2bJlS+GTjXXcldP8PnbsmDlz5ow5cOCAmTdvnpthWjUiUFdXjTrroTH+tRPssc4HPZQQXTYgEPp4axAKTSEAgQAJBCfYhdE48S2LaFmwW7F+6NAhs2LFiqlofU2koQn2aUEj2Psfbb7qqi9P8a+dYHfNR0zzgWtMtGtPIPTx1j4yroQABEIgEKVgX7BgQbHLLcK+TqwL5LqJtLyjdunSpWKnXT6vvvqqsTv8b731ltmwYUPx+6NHjxb2z507Z1auXFn8btOmTcVutny2bt1qfv3rXxdPBs6ePWvuv//+4neHDx8u/i6/s36Xnyrs2bPHPPvss6O21vakXfbqTqD1R65bvXq1effdd9lh73GU1dVVj6adusa/doI91vnAqSho1BuB0Mdbb4HTMQQgMAiB6AS7HJkRkbtx40bnoyl1E2l1gRYRXhba9957b3FzUN5RK+/4L1y4sBDZ0s4KbnuNZFGuk4/0IaL6qaeeKsT89evXzZEjR0ZC/7nnnjNPPPGEkRuSpkdipC85HiRPHOwNgtjkSEx/46iurvqz7NYz/vkR7LHMB25VQau+CIQ+3vqKm34hAIFhCAQn2Ktn2O1utD0Cc/HixYKM3eV2wVQ3kVYFuwhsOVIi59nl/69cuXKbYK8eOREhLuJ73759Zvv27eahhx4qbijkPHr5acCtW7cKcS83HPKxgr18zrzNGXZ5MlDuy/qDYHepkHZtpK5C/qxatcqcOnUqWBfrxmVfjtfZjXU+6IsX/boRqKsrt15oBQEIQGDCZtPs7OzsUHDqJrTyTnTVJyvYt23bZpYvXz7aTe7jSExZ+E4T7PaIjPV1zZo15pVXXhk9ARDfrGA/efLknJDsDYf0Xz1q00awv/7663O+ZIpg77+q6+q5fw/itqDFr85uVbDHMh/EXQ3xe19XV/FHSAQQgIAmgeB22AWGy5dORZCWd8KnQaybSNsu0HbnvWy7vINuBbvL8ZbydUuXLm18JIYd9uGHUV1dDe9RXBa1+NXZjXU+iCv76XlbV1fpRUxEEIDAkASiFewCSQT7tWvXas9p102kbRbo6ltrrC/2SIwceSl/sdTeiJTfbnP16tXRcRsR7F3OsEv/9ugNZ9iHGUJ1dTWMF/Fa0eJXZzfW+SDeSkjD87q6SiNKooAABLQIRC3Y7XGTRYsWTRXtdROp6wJtj6+Me0uMHIeRv995552jM+pWsNvdc/uWGHt93e/Pnz9ffDm16VtipJjE1s9//nOze/du3sPe0+iqq6uezCbTrRa/OruxzgfJFEakgdTVVaRh4TYEIBAIgaAEe19MmEj7Ipt3v9RVt/xr8dOy240WV4dOgLoKPUP4B4G4CSDYA85fdQe+7GrdO9oDDisZ11igu6VSi5+W3W60uDp0AtRV6BnCPwjETQDBHnf+8F6RAAt0N/ha/LTsdqPF1aEToK5CzxD+QSBuAgj2uPOH94oEWKC7wdfip2W3Gy2uDp0AdRV6hvAPAnETQLDHnT+8VyTAAt0NvhY/LbvdaHF16ASoq9AzhH8QiJsAgj3u/OG9IgEW6G7wtfhp2e1Gi6tDJ0BdhZ4h/INA3AQQ7HHnD+8VCbBAd4OvxU/LbjdaXB06Aeoq9AzhHwTiJoBgjzt/eK9IgAW6G3wtflp2u9Hi6tAJUFehZwj/IBA3AQR73PnDe0UCLNDd4Gvx07LbjRZXh06Augo9Q/gHgbgJINjjzh/eKxJgge4GX4uflt1utLg6dALUVegZwj8IxE0gC8E+MzNjTp06FXem8D44AizQ3VIi4/L06dPdOuFqCARCYNWqVawzgeQCNyCQIoEsBDvCKsXS1Y+JutLPAR5AAAIQgAAEciCAYM8hy8TYCwEEey9Y6RQCEIAABCAAgQoBBDslAYGWBBDsLcFxGQQgAAEIQAACjQgg2BvhojEEPiCAYKcaIAABCEAAAhAYggCCfQjK2EiSAII9ybQSFAQgAAEIQCA4Agj24FKCQ7EQQLDHkin8hAAEIAABCMRNAMEed/7wXpEAgl0RPqYhAAEIQAACGRFAsGeUbEL1SwDB7pcnvUEAAhCAAAQgMJ4Agp3KgEBLAgj2luC4DAIQgAAEIACBRgQQ7I1w0RgCHxBAsFMNEIAABCAAAQgMQSAowb53716zc+fOOXEvW7bMHD9+vPjdM888Y1566SWzZMmS4ufLly+bdevWmccee8zs2LFjIq+2wkr637Vrlzl48KCZP3/+EPlobePcuXPmyJEj5sCBA2bevHmjfm7cuGHWr19f8FmxYkXr/rnwdgJt6wqWEIAABCAAAQhAoAmB4AS7OD9OfIt4Lgt2K9YPHTpUK0TbCquYBPukpCPYmwyHZm3b1lUzK7SGAAQgAAEIQCB3AlEK9gULFjTaNa4TVrKzv3jx4qJP+Rw7dsxcuXLFrF27ds4Ou7S7du3abbvY5SKq7nTbvuQmRP62cuXKovmaNWsKO7Jzf+vWLbN161Zz+PDh4m9nz54tbkLsTYr8TmKw7ccVbdmu/N32t2nTJnP16lV22HsY6XV11YNJuoQABCAAAQhAIEMC0Ql2OTIjwnnjxo0jgV2XtzphNU7sSv9yY2CPxLz88stzRP0km5ME++bNm82WLVuK/uRIj4hv+chNgsQjHyvqn3rqqdExIDny4/IUoWx3//79oxuLCxcuFDcJ9iagjhV/dydQV1fuPdESAhCAAAQgAAEITCYwVbDPzMyY06dPe+U3Ozs7sb9xZ9jLu80iXi9evFhcf/ToUW+CvXzcRvq2Iv369evFvx944AHz3nvvTT0nb4NyFey2ffXIit1ttzcM1XP7dTcK+/btM9u3by9uaGSXvtwfZ9i9lnLx1GNaPfu1Rm8QgAAEIAABCORKYKpg9y1I6vor7zRXE2LPrG/bts0sX768+LKpy86z9FNntyxq5fiIHIeR3W5r8/HHHy/+/fzzz9d++XTakRjbn9x0yFEV+YLozZs3ixuPkydPzglZbkgkTtcvvVq74vcTTzwxOgKDYO9vaNfVVX+W6RkCEIAABCAAgZwIRCXYy7vNIlBF4E87120T6SKs7Flzuebhhx8enSG3gvn1118fCflpBVIV7JNuQqy96lGZct9NvvRq7bLDPtzwdamr4bzBEgQgAAEIQAACqRKIVrBLQly+BOqywy5t7O73PffcM7oJKAtmaVM+gz6pIEQ42zPo9suxchSl+gXWSWfYy2+/KZ+hr3utZPlG4cSJE+bMmTPFDj5n2Psbugj2/tjSMwQgAAEIQAACHxCIWrDb89+LFi2a+uYWF2Flj47ce++9o7Pq1R3uSe86rxaUPYsvb4KR/9nz7yLSN2zYUDS3R2LknenVt8TY8/ltdthFpMun/JaYu+++23z2s5+tff0lA6MZAZe6atYjrSEAAQhAAAIQgMDtBIIS7H0lCGHVF9m8+6Wu8s4/0UMAAhCAAASGIoBgb0i6/MXR6qXlXfOG3dY217Jb61jGDRDsGSef0CEAAQhAAAIDEkCwDwgbU2kRQLCnlU+igQAEIAABCIRKAMEeambwK3gCCPbgU4SDEIAABCAAgSQIINiTSCNBaBBAsGtQxyYEIAABCEAgPwII9vxyTsSeCCDYPYGkGwhAAAIQgAAEphJAsFMgEGhJAMHeEhyXQQACEIAABCDQiACCvREuGkPgAwIIdqoBAhCAAAQgAIEhCCDYh6CMjSQJINiTTCtBQQACEIAABIIjgGAPLiU4FAsBBHssmcJPCEAAAhCAQNwEshDsMzMz5tSpU3FnCu+DI4BgDy4lOAQBCEAAAhBIkkAWgh1hlWTtqgdFXamnAAcgAAEIQAACWRBAsGeRZoLsgwCCvQ+q9AkBCEAAAhCAQJUAgp2agEBLAgj2luC4DAIQgAAEIACBRgQQ7I1w0RgCHxBAsFMNEIAABCAAAQgMQQDBPgRlbCRJAMGeZFoJCgIQgAAEIBAcAQR7cCnBoVgIINhjyRR+QgACEIAABOImgGCPO394r0gAwa4IH9MQgAAEIACBjAgg2DNKNqH6JYBg98uT3iAAAQhAAAIQGE8AwU5lQKAlAQR7S3BcBgEIQAACEIBAIwII9ka4aAyBDwgg2KkGCEAAAhCAAASGIBCUYN+7d6/ZuXPnnLiXLVtmjh8/XvzumWeeMS+99JJZsmRJ8fPly5fNunXrzGOPPWZ27NgxkVdbYSX979q1yxw8eNDMnz+/cz7OnTtnVq5caSSmF154wXz1q181Fy9eNGfPnjUrVqzo1P+tW7fM1q1bzcaNG2/r69ixY+bMmTPmwIEDZt68eZ3scDGCnRqAAAQgAAEIQGBYAsEJdgl/nPgW8VwW7FasHzp0qFbshiLYRTjLZ/369UbE+5tvvjn1RsNXKSDYfZGc20/buurHG3qFAAQgAAEIQCBVAlEK9gULFhSiV4S9y850nbCSnf3FixcXfcpHBO6VK1fM2rVr5+ywS7tr167V7lTbnXTpa9OmTUX7EydOmA0bNhT9f+ELXzDf/va3i3/bv1+4cKHYfS//TnbDxeZPf/rT4inD0aNHRz5WC7K6w17ezV8yhQwxAAAgAElEQVS9erV59913a/1Otcj7iquurvqyS78QgAAEIAABCORFIDrBLkdmRMTK0Q8rsOtSViesRNweOXKkELTysUdL5MbAHol5+eWX54j6STbLO//3339/0de9995b3FzYGwH5d9nm22+/PXp6sHDhwjnXuN4klAW7+C1HheTpg/VB/OVITF2lNPt7XV01643WEIAABCAAAQhAYDyB4AR79Qy7Pd9thbCc+ZbPtN3maqh1wqp83EautSL9+vXrxb8feOAB89577zkdXykLcdkhl59FdItYf/3114ud+6pgl9338hnzch/79+8vwpl2Rl/+Xhbs8rO9AbE+lH9mMPghIHXFBwIQgECOBFatWmVOnTqVY+jEDAEVAsEJ9kni1Ar2bdu2meXLl492kH0ciSmL3atXr45EtbX5+OOPF19wff7552u/fFo9L17+4uo0wW6Py9gqWLNmTSHyXXf2qzFMugHgS6f+xlndjaA/S/QEAQhAICwCzH9h5QNv0icQlWAvf+m0vHNd9wYXl4nFHleRlD/88MPF2fhJYntaWbTdYbc779W+q+frJ9lmh334wepSV8N7hUUIQAAC/RNg/uufMRYgUCYQrWCXIFzPd7tMLHY3/Z577il2tuUmoCzYxd6WLVuKIzL2tZLjSqnrGXbpuxyXHIkpfyHWRbAvXbp09KVczrD3N+Bd6qo/6/QMAQhAQI8A858eeyznSSBqwX7jxo1CmC5atGjqFypdJha7Q22/ICrlUH0Pe3X3fFLJjHtLjBxFmfSlU3vO3L4lxh6HkZuGNjvs8nSg7MPhw4fNz3/+c7N7927ew+5xnLvUlUdzdAUBCEAgGALMf8GkAkcyIRCUYO+LORNLX2Tz7pe6yjv/RA+BnAkw/+WcfWLXIIBgb0i9+raa8uX2nep9fbFz3H8J1tr38V9LbYgi++YsWNmXAAAgkC0B5r9sU0/gSgQQ7ErgMRs/ARas+HNIBBCAQDsCzH/tuHEVBNoSQLC3Jcd12RNgwcq+BAAAgWwJMP9lm3oCVyKAYFcCj9n4CbBgxZ9DIoAABNoRYP5rx42rINCWAIK9LTmuy54AC1b2JQAACGRLgPkv29QTuBIBBLsSeMzGT4AFK/4cEgEEINCOAPNfO25cBYG2BBDsbclxXfYEWLCyLwEAQCBbAsx/2aaewJUIINiVwGM2fgIsWPHnkAggAIF2BJj/2nHjKgi0JYBgb0uO67InwIKVfQkAAALZEmD+yzb1BK5EYFDBPjMzY06fPq0UKmYh4JfAqlWrzKlTp/x2Sm8QgAAEIiCAYI8gSbiYFIFBBXtS5AgGAhCAAAQgkCkBBHumiSdsNQIIdjX0GIYABCAAAQjESQDBHmfe8DpeAgj2eHOH5xCAAAQgAAEVAgh2FewYzZgAgj3j5BM6BCAAAQhAoA0BBHsbalwDgfYEEOzt2XElBCAAAQhAIEsCCPYs007QigQQ7IrwMQ0BCEAAAhCIkQCCPcas4XPMBBDsMWcP3yEAAQhAAAIKBBDsCtAxmTUBBHvW6Sd4CEAAAhCAQHMCCPbmzLgCAl0IINi70ONaCEAAAhCAQIYEEOwZJp2QVQkg2FXxYxwCEIAABCAQHwEEe3w5w+O4CSDY484f3kMAAhCAAAQGJ4BgHxw5BjMngGDPvAAIHwIQgAAEINCUAIK9KTHaQ6AbAQR7N35cDQEIQAACEMiOAII9u5QTsDIBBLtyAjAPAQhAAAIQiI0Agj22jOFv7AQQ7LFnEP8hAAEIQAACAxNAsA8MHHPZE0CwZ18CAIAABCAAAQg0I4Bgb8aL1hDoSgDB3pUg10MAAhCAAAQyI4BgzyzhhKtOAMGungIcgAAEIAABCMRFAMEeV77wNn4CCPb4c0gEEIAABCAAgUEJINgHxY0xCBgEO0UAAQhAAAIQgEAjAgj2RrhoDIHOBBDsnRHSAQQgAAEIQCAvAgj2vPJNtPoEEOz6OcADCEAAAhCAQFQEEOxRpQtnEyCAYE8giYQAAQhAAAIQGJIAgn1I2tiCgOEMO0UAAQhAAAIQgEAzAgj2ZrxoDYGuBNhh70qQ6yEAAQhAAAKZEUCwZ5ZwwlUngGBXTwEOQAACEIAABOIigGCPK194Gz8BBHv8OSQCCEAAAhCAwKAEEOyD4sYYBDjDTg1AAAIQgAAEINCMAIK9GS9aQ6ArAXbYuxLkeghAAAIQgEBmBBDsmSWccNUJINjVU4ADEIAABCAAgbgIINjjyhfexk8AwR5/DokAAhCAAAQgMCgBBPuguDEGAc6wUwMQgAAEIAABCDQjgGBvxovWEOhKgB32rgS5HgIQgAAEIJAZAQR7ZgknXHUCCHb1FOAABCAAAQhAIC4CCPa48oW38RNAsMefQyKAAAQgAAEIDEoAwT4oboxBgDPs1AAEIAABCEAAAs0IINib8aI1BLoSYIe9K0GuhwAEIAABCGRGAMGeWcIJV50Agl09BTgAAQhAAAIQiIsAgj2ufOFt/AQQ7PHnkAggAAEIQAACgxJAsA+KG2MQ4Aw7NQABCEAAAhCAQDMCCPZmvGgNga4E2GHvSpDrIQABCEAAApkRQLBnlnDCVScwqGCfmZkxp0+fVg8aByDgg8CqVavMqVOnfHRFHx4IML94gEgXwRAIfX4JXbAzHwRTyjjigYDMB4MK9tAHuAemdJERAeo5rGSTj7DygTfdCIRez/jXLb9cDYEmBGS8IdibEKMtBEoEQl+wcksW+cgt42nHG3o941/a9Ud0YRFAsIeVD7yJjEDoC1ZkODu7Sz46I6SDgAiEXs/4F1Cx4EryBBDsyaeYAPskEPqC1WfsIfZNPkLMCj61JRB6PeNf28xyHQSaE0CwN2fGFRAYEQh9wcotVeQjt4ynHW/o9Yx/adcf0YVFAMEeVj7wJjICoS9YkeHs7C756IyQDgIiEHo9419AxYIryRNAsCefYgLsk0DoC1afsYfYN/kIMSv41JZA6PWMf20zy3UQaE4Awd6cGVdAYEQg9AUrt1SRj9wynna8odcz/qVdf0QXFgEEe1j5wJvICIS+YEWGs7O75KMzQjoIiEDo9Yx/ARULriRPAMGefIoJsE8CoS9YfcYeYt/kI8Ss4FNbAqHXM/61zSzXQaA5AQR7c2ZcAYERgdAXrNxSRT78Z3zv3r1m586dRcdnz541b7755pyfV6xY4d8oPRYEQq9n/Eu/UM+dO2dWrlxZjP2mY/3WrVtm//79ZvPmzWb+/Pnpw+o5QgR7z4DpPm0CoS9YadO/PTry4TfjN27cMOvXrzeLFi0yBw4cMDdv3pzz87x58/wapLc5BEKvZ/xLv2C7CHa52Zfrjx07hmD3UCoIdg8Q++5C7lK3bt1amCkvmnK3u2PHjuL35V2wTZs2Fe1kMbUL7smTJ0c7ZHLd5cuXzbp168zq1avNG2+8YR588MHRNX3Hk1L/oS9YKbF2iYV8uFC6vY2dDy5evDiaJ+6///5i3jl8+HDxu09/+tPm3nvvNd/97neLn9esWVMsxJcuXSp24Mq/k900u9Dv2bOn2JGX/7fzVTsv87sq9HrGv/hr0uqLd955pwjm1VdfNcuWLTPHjx83S5YsuW0cS5ujR48WN+7yqWoM+zeZGzZs2FC0Kfc3SavET7L/CBDs/TPubKFOsJfvgBcsWFAI8W3btplHH310jtA/ceKEefHFF4uBKB9ph1Dvlp7QF6xu0cV3NflonjMr1mXOkEVYFlo7T8h8Mm2H/e23354431y4cKEQ8gj15jmxV4Rez/jXPrehXGn1xfnz5wttUB3z1XFc3jWXGGR+sJuH1d346g77tGtD4RGyHwj2kLPzvm+ugl2al8+ZVRdi+/OhQ4eKQWmFvb1TjgBFcC6GvmAFB6xnh8hHc8BlgS47anbHTBZhOXs6TbCXNwHkWunryJEjc3be25x9bR5FmleEXs/4F3/dVfWFPJkvzwnXr18vbrzLO+f2ht7+zY7xal9yft0eiamKe/m5OvfET7PfCBDs/fL10nudYLd/t4+urXCX/7ePqsuOyMBbvnw5gt1DdkJfsDyEGFUX5KN5uqq7YE0EuyzI9gup1rJ9/F1dzJt7xhWh1zP+xV+jroLdivKyyH7rrbdGT+Pkhn2aYJf5oLpJiGBvVj8I9ma8VFrXCfayU/bcmJwv3b17t5Hz7PZRd7lddfddJbAEjIa+YCWAuFEI5KMRrqKxzx32svUuX1ZrHkWaV4Rez/gXf911EezssA+bfwT7sLxbWyvvgtkvedmzoeUFd+HChaNz6/v27TPbt28vbMqXUMedYR8n5ls7meGFoS9YuaWEfDTPeN9n2DkS0zwn9orQ6xn/2uc2lCvLT+hlrC5dunTOMTh7hn3cDrs9784Z9mGyiWAfhnNnK+W3OMiu+dWrV0df9JDOy9+8Ln8ju+4tMQj2bqkJfcHqFl18V5OPdjkrzy/j5o9pr3W0O+li2b45pvyWGAR7u5zIVaHXM/61z20oV5Z32O++++7iiMu0cTzpiVz1TXQSX3lusPNAWavwhfRmVYBgb8aL1hCYQyD0BSu3dJGP3DKedryh1zP+xV9/447ExB9VmhEg2NPMK1ENRCD0BWsgDMGYIR/BpAJHPBAIvZ7xz0OSlbtAsCsnoIF5BHsDWDSFQJVA6AtWbhkjH7llPO14Q69n/Eu7/oguLAII9rDygTeREQh9wYoMZ2d3yUdnhHQQEIHQ6xn/AioWXEmeAII9+RQTYJ8EQl+w+ow9xL7JR4hZwae2BEKvZ/xrm1mug0BzAgj25sy4AgIjAqEvWLmlinzklvG04w29nvEv7fojurAIINjDygfeREYg9AUrMpyd3SUfnRHSQUAEQq9n/AuoWHAleQII9uRTTIB9Egh9weoz9hD7Jh8hZgWf2hIIvZ7xr21muQ4CzQkg2Jsz4woIjAiEvmDllirykVvG04439HrGv7Trj+jCIoBgDysfeBMZgdAXrMhwdnaXfHRGSAcBEQi9nvEvoGLBleQJDC7Y77vvPnP16tXkwRJgHgTkP9n+i1/8Io9gI4iS+SWCJOGiM4HQ55fQBTvzgXOp0TACAjIf3DE7Ozs7yVffA9J3f66Mtey6+ke7OAlQV2HlTSsfWnbDoo83vgmEXlf4Nz7joXPxXaf0NwyBwXfYtQpZy+4wacSKFgHqSot8WAsldRBWHaTiTeh1hX9hzUOp1D1xTK4rdtipDgi0JBD6gtUyrGgv08qHlt1oE4XjTgRCryv8Q7A7FTKNvBBgh90LRjrJlUDoC1ZuedHKh5bd3PKbW7yh1xX+IdhzG5Oa8SLYNeljO3oCoS9Y0QNuGIBWPrTsNsRD88gIhF5X+Idgj2xIRe0ugj3q9OG8NoHQFyxtPkPb18qHlt2h+WJvWAKh1xX+IdiHHRF5W0Ow551/ou9IIPQFq2N40V2ulQ8tu9ElCIcbEQi9rvAPwd6ooGnciQCCvRM+Ls6dQOgLVm750cqHlt3c8ptbvKHXFf4h2HMbk5rxItg16WM7egKhL1jRA24YgFY+tOw2xEPzyAiEXlf4h2CPbEhF7S6CPer04bw2gdAXLG0+Q9vXyoeW3aH5Ym9YAqHXFf4h2IcdEXlb8y7Yv/GNb5gvfvGL5q677hpLdtoAv3z5slm3bp25ePHinGvPnj1rVqxYYezft23bZtavX1+0OXfunFm5cqXZtGmTOXDggJk3b15ju3UlYG1YP+rah/D3caysX7du3TJbt24tfpzGLIQ4QvdhWj3/z//8j/nHf/xH87d/+7ehhxGNf8wvbqmyc5a03rNnj3n44YeLedL+vGPHDreOprSqm0eOHTtmXnzxRXP8+HGzZMmSzvZy7GDa/PJf//Vfxbr3ox/9SA1NzII9VL1RN67qki1x/fjHPx6t8XXtx/19mn64ceNGob9Ek/mYR9r4l+s13gX7Rz/60YLlk08+WSwUVeHuItitILeFe/XqVSOT//Xr1wtBb/9uF6U1a9YUf58/f/7EPHaZWGIU7NMKuuuEkOtgGRf3uLoSof4P//APZt++fUb+/r//+78g80SA+cUN5N69e80PfvCDkViu/uzWS7dWCPZu/OTqcfOLCPW/+Iu/MKdPny4MzM7OdjfUsocu62pLk40ui1FvdFmfhxDTQ9holOSMGnsX7N/85jfN1772NfOhD33I/OY3vzFf+tKX5gj3JgNI8lAWywsWLBgJ9uXLlxf/vueee2rF+qSJr5xnWdDElhX+5cVGbhRkd0p22K0PDz744NTd6eodalX0V+/uy7v35d2x8s2I/b3cCO3cubPgOukOt2rfDrKTJ0+aP//zPy9C/9jHPsYOe8fBXq5nK9T//u//vqj/3/72t+bv/u7vzN/8zd90tMLllgDzywe1UB7T8tujR48WO18yd23YsGHU0M4V9hcy1yxdurRoK/OBfKpPMVevXm3eeOMNM22eGycsZB4Ve8uWLTO2D3bY24/f8vzyn//5n0XORKjb3//Zn/2ZOXHiRHsDHa9MSbAPqTfs+mzHiJwqsKcExA95Av7OO+8U2Xn11VdNdVNynH64//77i+sOHz5cXGf7u3nz5pyxbueJaamv6oeyPelXNlHZYe84eFpc7l2wiw9/8Ad/MCo22WEX4SJJFoF59913T9wRmHbkpSyWH3/88WKh+eUvf+n8uLVuYhEx/NRTTxX9LVy4cM6RkQsXLhSCXRYw2bWyO/7TdvSnCXY7sISVHEnZv3//6Gah/BTh0UcfHevHNKFua6Bqv7zDJm3kZqfupqNFPWV3idTVu+++W+yoW6Euwt3eEP3617/OjknfATO/GFPd5apuCEzbYa/ObyL47NGVJnNDVbDbeVIEgZ27zp8/7zxH9103MfYv88u1a9duE+oSi/zt//7v/1TDqltXVZ2b8IRi0ho5SbD3oTfs+mzX4Gljx45Je7KguraXNxdlQ7F8XKVunpiUn7INO5at7rl06VKhh1x0iHb+U7NfK9hnZmZGj966BP/hD3/YfP7znzff+973nAX7pCMx5TPurkVTN7HYwt64caOxu/fVozcSv+wcuewYuQh2uROunr2vPkaWn48cOVLsmtmB4nKWvmz/kUcemTOIuzxy61IDKV4rdfWXf/mX5vvf/76RnYyhPqtWrTKnTp0aylxjO77mDVfDuc0vVYFeHdOyCTDpSMwkAXDo0KHRE8Ty94Qm5WCczUlPKTnD7lrJc9vJ/PInf/In5j/+4z/addDzVXLz/N///d89W2nffZMn+kPqjao+KI8lOUq5ffv20cagRF8W4VWNUBblmzdvntO2bp6Y9J2/sn9VPcSRmPb12PXKWsHexkB5B0yul6L4yle+Yr785S877bCXBXlZINsikj5FNL/22mvF41cXAVsn2KVP2ZWS3QzZAX/55ZdHwrx8REXaudwk1B2JqfZphbsstBJT+WMZlI/myOOoaR8Ee5vKbX7NtB32P/zDPyx2Qvv4uNRzH3Zd++zTP+YXU9zAl7/Q2USw23mkmkvZGa8uztPyjWB3HQ3t27HD3p6dXOki2DX0hotgF//lCbw90mKPoFSP704T7HXzBIK9W30NfbV3wW7PmMpkXhbq9sunLgNo0u7OpHNVLufYXQSEPRbzR3/0R+a+++4bne+24loWtCtXrszZuZqUsDrBbq8rn0OV/uUz6c0KTb78Ok6wL1q0qIhJPrwlxs9QG3eG/YUXXjCy4ytHwaSWd+/e7cdYqReXevZutEGHffnH/PK7JNTtnDXZYS+nddrbIarpr7tJ4EunDQbMhKZ1Z9j/9E//1Pzbv/1bd0Mte+hrnLd057bLQtUbXQS71g77Y489Vnxnjh12X9XZvB/vgv0jH/lI4YU80pEd9S5viamGM24xsV+wqvsihcvEUhXP1VdHls/R2+KdhLxa1PbLWOUvfNk75klfrJ10ht3liQJn2JsPhjZXjKsr++VT+cLp//t//6+XozIu9dwmHl/X9OUf88vvMlR3NrXrGfY2R2I4w+5r9HzQz7hxxFti3Dn7FOxi1ZfesOuz3Wy0x13L3/8Qe+N22DnD7p7/1Fp6F+w+3pPsusNeXrjqvoDqKiDGvf6supvlunNUfluDfbNL9W0M9nFc+ZhN3Vti2gh2uxsm5+Z5S4y/YTytrvp8D7trPfuLtFlPffnH/PJBHqpviSnPC3WvdZx0bZcddnmiauc83hLTbLxMaj1tHPEe9nrGvgW7HTdd9YYdZ/YLrfISDasBqk+uqkdiJOryW1uq36uzm4P2zTLSftwboabRm/aWOd4SU193fbXwLtjrHO1rIQ/Vbp1f/D1uAtTz+PzlxkUr3rhHD97XEQi9rvCv3fzX5Ma4rkb4ez4EEOzv57rpOWN5x7zcFb/11lu3VYs85vrc5z5XvHGhr49P+88991xfbibfr9aCpWXXNaFa/oVqN7b5xeb57bffNt/5znfGpl3eBPTJT37SqSTkpQP2P3rldAGNCgJa9eyKH//8CPam84Nrfia1Qz90JahzPYL9fe6f+cxndDIQgFXN/7R1AOF3ckFrwdKy6wpLy79Q7eY8v0jNyBu9EOyuo+eDdlr17Oop/rUT7NWrYp0ffv/3f9/88z//s2u50K4jAQR7R4BcnjcBrQVLy65rtrX8y82uaz5oFycBrXp2pYV/fgS7K2/a5U0AwZ53/om+IwGtBUvLrisuLf9ys+uaD9rFSUCrnl1p4R+C3bVWaNedAIK9O0N6yJiA1oKlZdc11Vr+5WbXNR+0i5OAVj270sI/BLtrrdCuOwEEe3eG9JAxAa0FS8uua6q1/MvNrms+aBcnAa16dqWFfwh211qhXXcCCPbuDOkhYwJaC5aWXddUa/mXm13XfNAuTgJa9exKC/8Q7K61QrvuBBDs3RnSQ8YEtBYsLbuuqdbyLze7rvmgXZwEtOrZlRb+Idhda4V23Qkg2LszpIeMCWgtWFp2XVOt5V9udl3zQbs4CWjVsyst/EOwu9YK7boTUBHs3d2mBwiEQ2B2dnZwZ1goJy+UgycDgxDokYDG/OIaTgzzkGsstINADATumB1wRtAa4Fp2YygAfGxPQKuutOy6ktLyLze7rvmgXZwEtOrZlRb+scPuWiu0605AZYd9wPuDEaHQJ5buqaQHDQJadaVl15Wxln+52XXNB+3iJKBVz6608A/B7lortOtOAMHenSE9ZExAa8HSsuuaai3/crPrmg/axUlAq55daeEfgt21VmjXnQCCvTtDesiYgNaCpWXXNdVa/uVm1zUftIuTgFY9u9LCPwS7a63QrjsBBHt3hvSQMQGtBUvLrmuqtfzLza5rPmgXJwGtenalhX8IdtdaoV13Agj27gzpIWMCWguWll3XVGv5l5td13zQLk4CWvXsSgv/EOyutUK77gQQ7N0Z0kPGBLQWLC27rqnW8i83u675oF2cBLTq2ZUW/iHYXWuFdt0JINi7M6SHjAloLVhadl1TreVfbnZd80G7OAlo1bMrLfxDsLvWCu26E0Cwd2dIDxkT0FqwtOy6plrLv9zsuuaDdnES0KpnV1r4h2B3rRXadSeAYO/OkB4yJqC1YGnZdU21ln+52XXNB+3iJKBVz6608A/B7lortOtOAMFeYrh3716zc+dO88QTTxS//eu//muzYsUKJ8o3btwwW7ZsMbt27TJLlixxuoZG8RPQWrC07LpmTMu/kO0yv7hWD+0sAa16ds1A7P7ZMVmOd9myZeb48ePFr5555hnz0ksvjdb0y5cvm3Xr1pnHHnvM7NixYyKmtlykf9EQBw8eNPPnz3dNw8R2586dMytXrjQS0wsvvGC++tWvmosXL5qzZ886a5tJnd+6dcts3brVbNy48ba+jh07Zs6cOWMOHDhg5s2b1zkOOvgdAQT7+5Ugxffcc88VYr2N4Eaw5zmk2k7MXWlp2XX1W8u/UO0yv7hWDu3KBLTq2TULsfsngl0+48S3iOeyYLdi/dChQ7Vity0X34JdhLN81q9fb0S8v/nmm1NvNFzzXtcOwV5HqN3fEezGGHunePjw4YLiv/7rv5rXXnutuHNcsGBBMWjt3Y0U4ssvv1zsxMtnz5495tlnny3uNOV6e3c+SfTbAfmxj32saC+f8t2u9L9hw4bi97avhQsXFv3ff//9hW25Qz569Ki5cuVK4ceaNWuMXCd35NVYfNxJtyutPK5qOzF3paNl19VvLf9CtMv84lo1tKsS0Kpn10zE7p+rYBcdIKJXhL3LU/c6LmJ38eLFRZ/ykfVb1vO1a9fO2WGXdteuXavdqbY76dLXpk2bivYnTpwYaYkvfOEL5tvf/nZhy/79woULxe57+XeyGy42f/rTnxZPGURnWB+rNVHdYS/v5q9evdq8++67tX671hntfkcAwf5+JZSLT4SxfdQjA1Uegdm7ainKI0eOFIUoH7srL+1cjsTYu/Rt27YVA6E8IGUAyc9WfNvJxN4QiD2xaweaDKZHH3208PWhhx4a9SftZGIRX5966qli4LV5asAgqSdQNzHX99CuhZZdV2+1/AvVLvOLa+XQrkxAq55dsxC7fy6CXTbFpJ1s4E0Sr01vtKo6oqw37JEY2Zwri/pJOSnv/Fvtcu+99xYawN4IWD1gtcvbb789enpgNwTtNa43CeU5rayTrA9Wr3AkxnU01bdDsDsI9vJjsfJAKxei65GY6mO2Sf2V77qtYLeivPrYzN6tP/LII3N2AaadMasvDVq4ENBasLTsujCxOwGzs7Ouzb210+JSZ3eaYGd+8Zb+5DqqqyvtgGdmZszp06e13Zhqf9o8NO4Mu30qbYWwPNGWz7Td5qaCvawD5For0q9fv178+4EHHjDvvfee0/GVqoaQn+3G3+uvv17s3FcFu+y+l8+Yl/vYv39/Ec60M/ry9/KcJj/bmwHRRdN0TdDFErhzCHYHwV79Ekj52IodxE0Ee7m/cXfa9qiMuFY+cmO/3FEn2E+ePDmn7JpMNIHXa3DuaS2oWnZdEwM7QegAACAASURBVKDlX6h2pwl25hfXqsqvnVY9p0K6jl/dDrs8XZen4cuXL5/zpL2OT53d8nxw9erVkai2NwmPP/64kX8///zztV8+rZ4XL+uDaYLdHr21sdijta47+9UYJt0AsMNeVy3uf0ewtxDsFm+5YJcuXep8JGaSYK/e9drHWXaH3UWwuxzLcS8PWtYRqJuY665v+3ctu67+avkXqt0mgp35xbXK0m+nVc+pkK3jVyfYq0+/ykdWpzGqsyvX2vVd/v3www8XZ+Mnie1pttrusNud92rf1fP1k2yzwz78KEGwNxTs5TNh5Tc/NDnD7iLYb968WRxvkUHsKtjtmXgJSR5nNflW+/Cll4ZFl4m5j0i17LrGouVfqHZdBTvzi2uF5dFOq55ToVvHr4lgFyau57vr7Epfdn2+5557Rt9bKwt2aeOyAdf1DLt8v60clxyJcTk7X92wtF/K5Qx7f6MHwd5QsFff+GCPm9jfnz9/fuqXPKvHWcp3x1aky5EWeTz15JNPmp/85Cdm3759Zvv27aP3nU46EiMDZpJ//ZVQ3j27TMx9ENKy6xqLln+h2nUV7MwvrhWWRzutek6Fbh2/poJdjr7KOrto0aKpb0Cpsyt87Vi3X/a0In7Sht60oyXj3hIj7Sd96dSeM7dviSm/aa7NDrtsLJZ9kGO9P//5z83u3bt5D7vHwYRg9wiTrvIj4DIx90FFy65rLFr+5WbXNR+0i5OAVj3HSet2r7X4adlNJW/EMZ4Agt1zZVR3yMrd172j3bMrdDcAAa2JWcuuK1It/1K3y/ziWoFptNOq5zTo/e691bG/rar6tppybuw71fv6Yue4t+hY+/w3XoYfJQj24ZljMSECKSwIfaQjNy5a8faRO/oMhwB11S0XWvy07HajxdWhE0Cwh54h/AuagNbErGXXNRla/uVm1zUftIuTgFY9x0nrdq+1+GnZTSVvxDGeAIKdyoBABwJaE7OWXVdUWv7lZtc1H7SLk4BWPcdJC8GeSt6IA8GucpaNwkubgNaCqmXXNZta/uVm1zUftIuTgFY9x0kLwZ5K3ogDwY5gZxR4J6C1oGrZdQWo5V9udl3zQbs4CWjVc5y0EOyp5I04EOwIdkaBdwJaC6qWXVeAWv7lZtc1H7SLk4BWPcdJC8GeSt6IA8GOYGcUeCegtaBq2XUFqOVfbnZd80G7OAlo1XOctBDsqeSNOBDsCHZGgXcCWguqll1XgFr+5WbXNR+0i5OAVj3HSQvBnkreiCNzwT4zM2NOnTpFHUDAKwGtBVXLris8Lf+07DK/uFYG7ZoQ0KrnJj6G3FaLH/NByFURr29Sz3fMDvifAtMaQFp24y0NPHchoFVXWnZdmEgbLf9ys+uaD9rFSUCrnuOkxQ57Knkjjsx32Jn4GAJ9ENCqKy27rgy1/MvNrms+aBcnAa16jpMWgj2VvBEHgp0z7IwC7wS0FlQtu64AtfzLza5rPmgXJwGteo6TFoI9lbwRB4Idwc4o8E5Aa0HVsusKUMu/3Oy65oN2cRLQquc4aSHYU8kbcSDYEeyMAu8EtBZULbuuALX8y82uaz5oFycBrXqOkxaCPZW8EQeCHcHOKPBOQGtB1bLrClDLv9zsuuaDdnES0KrnOGkh2FPJG3Eg2BHsjALvBLQWVC27rgC1/MvNrms+aBcnAa16jpMWgj2VvBEHgh3BzijwTkBrQdWy6wpQy7/c7Lrmg3ZxEtCq5zhpIdhTyRtxINgR7IwC7wS0FlQtu64AtfzLza5rPmgXJwGteo6TFoI9lbwRB4Idwc4o8E5Aa0HVsusKUMu/3Oy65oN2cRLQquc4aSHYU8kbcSDYEeyMAu8EtBZULbuuALX8C9Xu5cuXza5du8zBgwfN/PnzXTGO2u3du9csXrzYrF+/vvG1XBAvAa16jpfYXM+1+HWxe+7cOXPkyBFz4MABM2/ePKdU3Lhxw2zZsqWYY5YsWeJ0TdtGt27dMlu3bjUbN240K1asaNsN17UgIHV1x+zs7GyLa1td0qWQWxl8/yItu1185trwCWjVlZZd14xo+ReqXQS7a+XQrkxAq55TyYIWvy52EeypVJ//OBDsJaayi7Vz587iN3v27DE7duwo/i2L7bp168zFixfNmjVrzLFjx8ydd9455y5zyDtc/2VAj20JdJmY29qU67Tsuvqs5V+odquCXeaQDRs2FDiXLVtmjh8/XuyMyWK9cuXK4vd2rnn99ddHbY8ePTpxl93ufN17771j57Fy39L/2bNnix0yKxDuvvtu8+KLLxZ2Ze576qmnijmvbLPcx6ZNmxrtArrWDu0+IKBVz6nkQItfnV07HzzwwAPmy1/+8m1zgOywl8ejzBfyZM6O8cOHDxcpkjF8//33F1pEfmfnkoULF45+Vx7r0/JavVEQm1euXCnmAtFGP/3pT4t56jvf+Y7593//d3bYFQYJgv196OVilV8999xz5oknnjALFiwoFkgpWlncpHCvXbtWLFQ3b940X//6183zzz9vZFFdtGgRj4gUiljTZN3E3JdvWnZd49HyL1S7ZcF+6dKlYh6xi7D8Wz6bN2+e81hb/i4fmX9cjsTYxVyukfnpwoULheiWRVY+zzzzjHnppZeKGwPp+8yZM6N2cpNQXvyvXr1atCn7ev369VEfVhDIzYHd2HCtDdq5E9CqZ3cPw26pxa/Ort0EfOyxx4rxUzce7Tgr64/y+BadUj4SM6ndtOMydYLd6h7JOEdidOoewT5GsJfPjUkRlxfX6k6Z/F124+XOdvfu3c5nznTSjVXfBOomZt/2bH9adl3j0fIvVLvTjsTYnayqYC+zbiLYH3rooULkT3vqV16cZeGv3kDY8/Jlv2VTwop8mSPbPLp3rR/a/Y6AVj2nwl+LX51dGVflG+jyWJUb4/J4tPPDs88+O0co2xt0Ge+PPPLISLDbm2l7xrzcbtp3YOoEu9SE3Fxwhl1vdCDYS+zLj6ntY+DqY2RpXn6ETfHqFW8Ilusm5r581LLrGo+Wf6HaLQtfe5zOPtYWpvYIXvn4XfnISRPBbhfqqmAvH/kTm7Z/EezlL7mVbVUFuz3GY+vAHttp80Va11rKuZ1WPafCXItfnd3qDXxVsJfHY/mGvvy0X3Jkx2pZsFdPBZTbdRHs9iYezaM3OhDsY9iXC1L+PO0b2zKYfvWrXxXn3OVoDAuXXjFrWK6bmPvyScuuazxa/oVqd9pOdfmsaJlv9Qxp3VtiqgvptF276g67q2C3Z1pd64B23Qho1XM3r8O5Wotfnd3qDnv5Z9lhHyfYh95ht0f17Bl2BLt+XSPY389BeXGUhW/SGXZpJ4NJ/l8G1iuvvFIchZFdqjfffJPznPo1PagHdRNzX85o2XWNR8u/UO1OEuzyPRjZ9ZLvx6xdu3bOqx/bnmEft8Nefsxud/gll/asu4tgL59hl7Ow5XOyrq+fc60f2v2OgFY9p8Jfi1+dXfskbdu2bcX4r55hHyfYrXC2Z8n7OMNuv/Nid+llXkKwhzMaEOzv56L67evymxHKj6ntcZjqlzxcHzuFk3o88UGgbmL2YWNcH1p2XePR8i9Uu2XBLgxlkT558mTxRpYnn3zS/OQnPynE84kTJ0ZvhCkfibHH9VzeEjNOsJffGmG/b/Pqq68W74WXL5a6CHZ5ejjuLTY8VXQdFc3badVzc0/DvEKLX51dOx987GMfK97uUj5aNu0s+bi3xIiotr8/f/588SXzNm+JsRpG3pQn/sj/3nvvPQR7QKWNYA8oGbgSH4G6ibmviLTsusaj5V9udl3zQbs4CWjVc5y0bvdai1+d3a7/XYZU8kMczQgg2JvxojUE5hCom5j7wqVl1zUeLf9StzvuS/A2J+X/doRrnmgXNgGteg6birt3Wvzq7GoI9vJJgSpB/psK7jWl2RLBrkkf29ETqJuY+wpQy65rPFr+5WbXNR+0i5OAVj3HSSueHfZU+BLHsAQQ7MPyxlpiBLQWVC27runT8i83u675oF2cBLTqOU5aCPZU8kYc4wkg2KkMCHQgoLWgatl1RaXlX252XfNBuzgJaNVznLQQ7KnkjTgQ7GZ2dpY6gIBXAloLqpZdV3ha/uVm1zUftIuTgFY9x0kLwZ5K3ogDwY5gZxR4J6C1oGrZdQWo5V9udl3zQbs4CWjVc5y0EOyp5I04EOwIdkaBdwJaC6qWXVeAWv7lZtc1H7SLk4BWPcdJC8GeSt6IA8GOYGcUeCegtaBq2XUFqOVfbnZd80G7OAlo1XOctBDsqeSNOBDsCHZGgXcCWguqll1XgFr+5WbXNR+0i5OAVj3HSQvBnkreiCNzwT4zM2NOnTpFHUDAKwGtBVXLris8Lf+07DK/uFYG7ZoQ0KrnJj6G3FbG5enTp0N2Ed8g4Exg1apV5o7ZAV+fojUBadl1zgQNoySgVVdadl2TpOVfbnZd80G7OAlo1XOctPAaAukTQLCnn2Mi7ImA1oKqZdcVo5Z/udl1zQft4iSgVc9x0sJrCKRPAMGefo6JsCcCWguqll1XjFr+5WbXNR+0i5OAVj3HSQuvIZA+AQR7+jkmwp4IaC2oWnZdMWr5l5td13zQLk4CWvUcJy28hkD6BBDs6eeYCHsioLWgatl1xajlX252XfNBuzgJaNVznLTwGgLpE0Cwp59jIuyJgNaCqmXXFaOWf7nZdc0H7eIkoFXPcdLCawikTwDBnn6OibAnAloLqpZdV4xa/uVm1zUftIuTgFY9x0kLryGQPgEEe/o5JsKeCGgtqFp2XTFq+ZebXdd80C5OAlr1HCctvIZA+gQQ7OnnmAh7IqC1oGrZdcWo5V9udl3zQbs4CWjVc5y08BoC6RNAsKefYyLsiYDWgqpl1xWjln+52XXNB+3iJKBVz3HSwmsIpE8AwZ5+jomwJwJaC6qWXVeMWv7lZtc1H7SLk4BWPcdJC68hkD4BBHv6OSbCnghoLahadl0xavmXm13XfNAuTgJa9RwnLbyGQPoEEOzv5/jcuXNm5cqVo4yfPXvWrFixovj52LFjZsOGDWbZsmVm9erV5q677jI7duwwt27dMlu3bjWHDx8u2pWvSb90iFBrQdWy65pxLf9Ctrt3716zc+fOAuGePXuK+UM+ly9fNuvWrTMXL140a9asKeaaO++8s5hXNm7cWMxBN27cMFu2bDG7du0yS5YscU0D7SInoFXPkWPDfQgkSwDB/v6i+cwzz5iXXnqpWBBl0Txz5ow5cOCAefvtt43924IFC8z69euLRVQWXFmE5SP/FsH/1FNPmePHj7OoJjtc5gamtaBq2XVNq5Z/odqVueHIkSPFfCKf5557zjzxxBPGzicyf8icIvPJtWvXinY3b940X//6183zzz9vXn/9dbNo0aLRBoJrHmgXNwGteo6bGt5DIF0CCPYxuS0vsCdOnDBXrlwZ7YiJmJefN2/eXIh3u9ja3Xa7K5ZuyRCZJaC1oGrZdc28ln+h2i3PJ/PmzRthlN+LSJc5Zf78+cVuu+yiHzx4sPhZ/i678fJkb/fu3aZ8rWsuaBcvAa16jpcYnkMgbQII9vfzW35kLb/atGlTsdO1f//+0S66/KMq2E+ePDmnQo4ePVoIeT7pE9BaULXsumZUy7+Q7dpjdcLQzhHVY3jyNxHn9ikdmwCuFZdmO616TpMmUUEgfgIIdmOKnazyTpfrDjvnSuMfAF0i0FpQtey6stLyLwa7ZREuPO1RmXG75yLyf/WrXxU773I0Rnbd+eRDQKue8yFMpBCIiwCCvSLY7Re+JI1NzrDbL48dOnSIs6ZxjYHW3motqFp2XUFp+ReqXftUzn5RfdIZdmknAl7+//r16+aVV14pjsJcuHDBvPnmm6Njea55oF3cBLTqOW5qeA+BdAkg2I2Z87YXe1701VdfHZ0ltY+z5S0O8r/33ntv7FtiOA6T7kAZF5nWgqpl1zW7Wv6Farf6NqnyPFF+S4w9DiNfRq0+vZMngIsXL+a4nWsRJtBOq54TQEcIEEiSAIK9QVrtwvvQQw+xcDbglmpTrQVVy65rHrX8y82uaz5oFycBrXqOkxZeQyB9Agj2mhxXvxhWfody+uVBhNMIaC2oWnZdq0HLv9zsuuaDdnES0KrnOGnhNQTSJ4BgTz/HRNgTAa0FVcuuK0Yt/3Kz65oP2sVJQKue46SF1xBInwCCPf0cE2FPBLQWVC27rhi1/MvNrms+aBcnAa16jpMWXkMgfQII9vRzTIQ9EdBaULXsumLU8i83u675oF2cBLTqOU5aeA2B9Akg2NPPMRH2REBrQdWy64pRy7/c7Lrmg3ZxEtCq5zhp4TUE0ieAYE8/x0TYEwGtBVXLritGLf9ys+uaD9rFSUCrnuOkhdcQSJ8Agj39HBNhTwS0FlQtu64YtfzLza5rPmgXJwGteo6TFl5DIH0CCPb0c0yEPRHQWlC17Lpi1PIvN7uu+aBdnAS06jlOWngNgfQJINjTzzER9kRAa0HVsuuKUcu/3Oy65oN2cRLQquc4aeE1BNInkIVgn5mZMadOnUo/m0Q4KAGtBVXLritcLf+07DK/uFYG7ZoQ0KrnJj7SFgIQGI5AFoKdiW+4gsrJklZdadl1za2Wf7nZdc0H7eIkoFXPcdLCawikTwDBnn6OibAnAloLqpZdV4xa/uVm1zUftIuTgFY9x0kLryGQPgEEe/o5JsKeCGgtqFp2XTFq+ZebXdd80C5OAlr1HCctvIZA+gQQ7OnnmAh7IqC1oGrZdcWo5V9udl3zQbs4CWjVc5y08BoC6RNAsKefYyLsiYDWgqpl1xWjln+52XXNB+3iJKBVz3HSwmsIpE8AwZ5+jomwJwJaC6qWXVeMWv7lZtc1H7SLk4BWPcdJC68hkD4BBHv6OSbCnghoLahadl0xavmXm13XfNAuTgJa9RwnLbyGQPoEEOzp55gIeyKgtaBq2XXFqOVfbnZd80G7OAlo1XOctPAaAukTQLCnn2Mi7ImA1oKqZdcVo5Z/udl1zQft4iSgVc9x0sJrCKRPAMGefo6JsCcCWguqll1XjFr+5WbXNR+0i5OAVj3HSQuvIZA+AQT7lBxfvnzZ7Nq1yxw8eNBcv3599O/58+enXxlEWEtAa0HVslsL5P0GWv7lZtc1H7SLk4BWPcdJC68hkD4BBLtjjsviHcHuCC3xZloLqpZd13Rq+ZebXdd80C5OAlr1HCctvIZA+gQQ7O/n+MaNG2b9+vXm5MmTZs2aNebYsWOjXfU9e/aYp59+evS3T3ziE+bjH/940V4+0lY+9uf0y4YIhYDWgqpl1zXrWv6FbPfcuXNm5cqVI4Rnz541K1asGM0fGzZsMMuWLTOrV682d911l9mxY4e5deuW2bp1qzl8+HDRrnyNay5oFy8BrXqOlxieQyBtAgh2Y0YL48aNG4tFVAT4lStXzNq1a8ceibl06ZI5cuSIOXDgQFEdzz33nHniiSfMkiVL0q4WoptDQGtB1bLrmn4t/0K1K0/nnnnmGfPSSy8Vc4TML2fOnCnmj7fffnv0twULFhQ3/TIHiWDfu3dvgVz+LYL/qaeeMsePH2eecS3EyNtp1XPk2HAfAskSQLAbYyYdd5l0hl2q4etf/7p5/vnni134V155xezevdvMmzcv2UIhsNsJaC2oWnZda0DLv1jsivi2N/wnTpwoNgdElMvHbhZs3ry5EO/yexHwdrfdbiq45oJ28RLQqud4ieE5BNImgGA3pti9kt0sWSzL59OnfelU2j/88MPm6tWrRYVwHCbtgTIuOq0FVcuua4a1/AvZrswXO3fuHCHctGlTscO+f//+0S76OMEuR/TKn6NHjzLXuBZi5O206jlybLgPgWQJINhb7LCLqBeR/8Mf/rAoDI7DJDs+pgamtaBq2XXNspZ/odqtbgi47rBv2bKlOJLHUTvXykurnVY9p0WRaCCQDgEEuzHGfuHUPn62Z0yffPJJ88ILL4x9raO9ZtGiRcVOGcdh0hkUrpFoLahaduEynkBdPsqC/c477yy+SCqfJmfY5WnfunXrzKFDh0ZfVnXNB+3iJFBXV3FGhdcQgEBbAgj298nZBfHixYu3vSVG3sMun/JbYWSXXR5zL168mEfUbasv8uu0FlQtu67p0vIvVLvlt73Im2Dk+y6vvvpqsREg84hsEMhbYuTtVPK/9957b+xbYjgO41qBabTTquc06BEFBNIjgGBvmVPZYeeRdUt4iVymtaBq2XVNm5Z/sdu1wv6hhx5iE8C12BJup1XPCSMlNAhETQDB3iJ9djd+27ZtLKwt+KVyidaCqmXXNW9a/sVot/p+dvlvPtg3xrjypl2aBLTqOU2aRAWB+Akg2OPPIREoEdBaULXsumLW8i83u675oF2cBLTqOU5aeA2B9Akg2NPPMRH2REBrQdWy64pRy7/c7Lrmg3ZxEtCq5zhp4TUE0ieAYE8/x0TYEwGtBVXLritGLf9ys+uaD9rFSUCrnuOkhdcQSJ8Agj39HBNhTwS0FlQtu64YtfzLza5rPmgXJwGteo6TFl5DIH0CCPb0c0yEPRHQWlC17Lpi1PIvN7uu+aBdnAS06jlOWngNgfQJINjTzzER9kRAa0HVsuuKUcu/3Oy65oN2cRLQquc4aeE1BNIngGBPP8dE2BMBrQVVy64rRi3/crPrmg/axUlAq57jpIXXEEifAII9/RwTYU8EtBZULbuuGLX8y82uaz5oFycBrXqOkxZeQyB9AoMK9pmZGXP69On0qRJhFgRWrVplTp06NXisoS/kWv5p2ZV5TaMOBi88DA5KQKueBw0SYxCAgDOBQQW7s1c0hAAEJhIIfSHX8i83uwyRtAlo1XPaVIkOAvESQLDHmzs8z5RA6Au5ln+52c20/LMJW6ueswFMoBCIjACCPbKE4S4EQl/ItfzLzS4jIW0CWvWcNlWig0C8BBDs8eYOzzMlEPpCruVfbnYzLf9swtaq52wAEygEIiOAYI8sYbgLgdAXci3/crPLSEibgFY9p02V6CAQLwEEe7y5w/NMCYS+kGv5l5vdTMs/m7C16jkbwAQKgcgIINgjSxjuQiD0hVzLv9zsMhLSJqBVz2lTJToIxEsAwR5v7vA8UwKhL+Ra/uVmN9PyzyZsrXrOBjCBQiAyAgj2yBKGuxAIfSHX8i83u4yEtAlo1XPaVIkOAvESQLDHmzs8z5RA6Au5ln+52c20/LMJW6ueswFMoBCIjACCPbKE4S4EQl/ItfyLze7ly5fNrl27zMGDB83169dH/54/fz5FDgGjVc+ghwAEwiSAYA8zL3gFgYkEQl/ItfyL2W5ZvCPYGfxCQKueoQ8BCIRJAMEeZl7wCgII9oY1oCVwXOzeuHHDrF+/3pw8edKsWbPGHDt2bLSrvmfPHvP000+P/vaJT3zCfPzjHy/ay0faysf+3BALzSMl4FJXkYaG2xCAQAsCCPYW0LgEApoEQl/ItfwL1e6tW7fM1q1bzcaNG82KFSsKAX7lyhWzdu3asUdiLl26ZI4cOWIOHDhQlNlzzz1nnnjiCbNkyRLNssP2wAS06nngMDEHAQg4EkCwO4KiGQRCIRD6Qq7lX6h2Jx13mXSGXers61//unn++eeLXfhXXnnF7N6928ybNy+UEsSPAQho1fMAoWECAhBoQQDB3gIal0BAk0DoC7mWf6HaPXfunNm7d2+xs14+nz7tS6fS/uGHHzZXr14tSo3jMJojTse2Vj3rRItVCECgjgCCvY4Qf4dAYARCX8i1/AvVbtMddhH1IvJ/+MMfFpXHcZjABuBA7mjV80DhYQYCEGhIAMHeEBjNIaBNIPSFXMu/UO3aL5zu2LFjdIb9zJkz5sknnzQvvPDC2Nc62msWLVpUnGXnOIz2qBvevlY9Dx8pFiEAARcCCHYXSrSBQEAEQl/ItfwL2a7ssq9bt85cvHjxtrfEyHvY5VN+K4zsssuxmMWLF3McJqCxN6QrWvU8ZIzYggAE3Akg2N1Z0RICQRAIfSHX8i8lu7LDvmXLluItMrwdJohhN7gTWvU8eKAYhAAEnAgg2J0w0QgC4RAIfSHX8i8Vu3Y3ftu2beyuhzPsBvdEq54HDxSDEICAEwEEuxMmGkEgHAKhL+Ra/uVmN5yKxJM+CGjVcx+x0CcEINCdAIK9O0N6gMCgBEJfyLX8y83uoEWHscEJaNXz4IFiEAIQcCKAYHfCRCMIhEMg9IVcy7/c7IZTkXjSBwGteu4jFvqEAAS6E0Cwd2dIDxAYlEDoC7mWf7nZHbToMDY4Aa16HjxQDEIAAk4EEOxOmGgEgXAIhL6Qa/mXm91wKhJP+iCgVc99xEKfEIBAdwII9u4M6QECgxIIfSHX8i83u4MWHcYGJ6BVz4MHikEIQMCJAILdCRONIBAOgdAXci3/crMbTkXiSR8EtOq5j1joEwIQ6E4Awd6dIT1AYFACoS/kWv7lZnfQosPY4AS06nnwQDEIAQg4EUCwO2GiEQTCIRD6Qq7l38zMjDl9+nQ4icITCHQgsGrVKnPq1KkOPXApBCCQEgEEe0rZJJYsCGgJYle4ofvnGgftIAABCEAAAqEQQLCHkgn8gIAjgdAFcej+OWKmGQQgAAEIQCAYAgj2YFKBIxBwIxC6IA7dPzfKtIIABCAAAQiEQwDBHk4u8AQCTgRCF8Sh++cEmUYQgAAEIACBgAgg2ANKBq5AwIVA6II4dP9cGNMGAhCAAAQgEBIBBHtI2cAXCDgQCF0Qh+6fA2KaQAACEIAABIIigGAPKh04A4F6AqEL4tD9qydMCwhAAAIQgEBYBBDsYeUDbyBQSyB0QRy6f7WAaQABCEAAAhAIjACCPbCE4A4E6giELohD96+OL3+HAAQgAAEIhEYAwR5aRvAHAjUEQhfEoftHgUEAAhCAAARiI4Bgjy1j+Js9gdAFcej+ZV9AAIAABCAAgegIINijSxkO504gdEEcun+51w/xQwACEIBAfAQQ7PHlDI8zbt6EOQAAIABJREFUJxC6IA7dv8zLh/AhAAEIQCBCAgj2CJOGy3kTCF0Qh+5f3tVD9BCAAAQgECMBBHuMWcPnrAmELohD9y/r4iF4CEAAAhCIkgCCPcq04XTOBEIXxKH7l3PtEDsEIAABCMRJAMEeZ97wOmMCoQvi0P3LuHQIHQIQgAAEIiWAYI80cbidL4HQBXHo/uVbOUQOAQhAAAKxEkCwx5o5/M6WQOiCOHT/si0cAocABCAAgWgJINijTR2O50ogdEEcun+51g1xQwACEIBAvAQQ7PHmDs8zJRC6IA7dv0zLhrAhAAEIQCBiAgj2iJOH63kSCF0Qh+5fnlVD1BCAAAQgEDMBBHvM2cP3LAmELohD9y/LoiFoCEAAAhCImgCCPer04XyOBEIXxKH7l2PNEDMEIAABCMRNAMEed/7wPkMCoQvi0P3LsGQIGQIQgAAEIieAYI88gbifH4HQBXHo/uVXMUQMAQhAAAKxE0Cwx55B/M+OQOiCOHT/sisYAoYABCAAgegJINijTyEB5EYgdEEcun+51QvxQgACEIBA/AQQ7PHnkAgyIxC6IA7dv8zKhXAhAAEIQCABAgj2BJLYdwgzMzPm9OnTfZuhf0cCq1atMqdOnXJsPXwz6qUb89Dz2y06roYABCAAgTYEEOxtqGV2DTummSWccFUJMN5U8WMcAhCAQJAEEOxBpiUspxAQYeUDb9ImwHhLO79EBwEIQKANAQR7G2qZXYOAyCzhhKtKgPGmih/jEIAABIIkgGAPMi1hOYWACCsfeJM2AcZb2vklOghAAAJtCCDY21DL7BoERGYJJ1xVAow3VfwYhwAEIBAkAQR7kGkJyykERFj5wJu0CTDe0s4v0UEAAhBoQwDB3oZaZtcgIDJLOOGqEmC8qeLHOAQgAIEgCSDYg0xLWE4hIMLKB96kTYDxlnZ+iQ4CEIBAGwII9jbUMrsGAZFZwglXlQDjTRU/xiEAAQgESQDBHmRawnIKARFWPvAmbQKMt7TzS3QQgAAE2hBAsLehltk1CIjMEk64qgQYb6r4MQ4BCEAgSAII9iDTEpZTCIiw8oE3aRNgvKWdX6KDAAQg0IYAgr0NtcyuQUBklnDCVSXAeFPFj3EIQAACQRJAsAeZlrCcQkCElQ+8SZsA4y3t/BIdBCAAgTYEEOxtqGV2DQIis4QTrioBxpsqfoxDAAIQCJIAgj3ItITlFAIirHzgTdoEGG9p55foIAABCLQhgGBvQy2zaxAQmSWccFUJMN5U8WMcAhCAQJAEEOxBpiUspxAQYeUDb9ImwHhLO79EBwEIQKANAQR7G2qZXYOAyCzhhKtKgPGmih/jEIAABIIkgGAPMi1hOYWACCsfeJM2AcZb2vklOghAAAJtCCDY21DL7BoERGYJJ1xVAow3VfwYhwAEIBAkAQR7kGkJyykERFj5wJu0CTDe0s4v0UEAAhBoQwDB3oZaZtcgIDJLOOGqEmC8qeLHOAQgAIEgCSDYg0xLWE4hIMLKB96kTYDxlnZ+iQ4CEIBAGwII9jbUMrsGAZFZwglXlQDjTRU/xiEAAQgESQDBHmRawnIKARFWPvAmbQKMt7TzS3QQgAAE2hBAsLehltk1CIjMEk64qgQYb6r4MQ4BCEAgSAII9iDTEpZTCIiw8oE3aRNgvKWdX6KDAAQg0IYAgr0NtcyuQUBklnDCVSXAeFPFj3EIQAACQRJAsAeZlrCcQkCElQ+8SZsA4y3t/BIdBCAAgTYEEOxtqGV2DQIis4QTrioBxpsqfoxDAAIQCJIAgj3ItITlFAIirHzgTdoEGG9p55foIAABCLQhgGBvQy2zaxAQmSWccFUJMN5U8WMcAhCAQJAEEOxBpiUspxAQYeUDb9ImwHhLO79EBwEIQKANAQR7G2qZXYOAyCzhhKtKgPGmih/jEIAABIIkgGAPMi1hOYWACCsfeJM2AcZb2vklOghAAAJtCCDY21DL7BoERGYJJ1xVAow3VfwYhwAEIBAkAQR7kGkJyykERFj5wJu0CTDe0s4v0UEAAhBoQwDB3oZaZtcgIDJLOOGqEmC8qeLHOAQgAIEgCSDYg0xLWE75FhAzMzPm9OnTYQWJNxBoSWDVqlXm1KlTLa++/TLf482bY3QEAQhAAAJqBBDsaujjMexbQPjuLx6SeJoiAd/17Lu/FJkTEwQgAIHcCCDYc8t4i3h9Cwjf/bUIiUsg4I2A73r23Z+3QOkIAhCAAATUCCDY1dDHY9i3gPDdXzwk8TRFAr7r2Xd/KTInJghAAAK5EUCw55bxFvH6FhC++2sREpdAwBsB3/Xsuz9vgdIRBCAAAQioEUCwq6GPx7BvAeG7v3hI4mmKBHzXs+/+UmROTBCAAARyI4Bgzy3jLeL1LSB899ciJC6BgDcCvuvZd3/eAqUjCEAAAhBQI4BgV0Mfj2HfAsJ3f/GQxNMUCfiuZ9/9pcicmCAAAQjkRgDBnlvGW8TrW0D47q9FSFwCAW8EfNez7/68BUpHEIAABCCgRgDBroY+HsO+BYTv/uIhiacpEvBdz777S5E5MUEAAhDIjQCCPbeMt4jXt4Dw3V+LkLgEAt4I+K5n3/15C5SOIAABCEBAjQCCXQ19PIZ9Cwjf/cVDMlxP9+7da3bu3Fk4ePbsWfPmm2/O+XnFihXhOq/sme969t2fMh7MQwACEICABwIIdg8QU+/Ct4Dw3V/q/PuO78aNG2b9+vVm0aJF5sCBA+bmzZtzfp43b17fLkTdv+969t1f1HBxHgIQgAAECgIIdgqhloBvAeG7v9oAAmhw7tw5s3LlymL3Wnarjx07Zl588UVz/Phxs2TJkuLnDRs2FJ6uWbOm+Hn+/PnFz+W/bdq0qRDV8tm6dat55513in//7Gc/G/U1KdzLly+bdevWmYsXLxZNxJf777+/6Ofw4cPF7z796U+be++913z3u9+d48ulS5cK/6v+2bj27NlT7MjL/+/YsSMA4sO54Lueffc3HAksQQACEIBAXwQQ7H2RTahf3wLCd38xoJ4m2MV/EdLbtm0zjzzySLG7LaJehG/5uqVLl47+9uyzzxZC+/z587VCXfq3Yl1sSP/lG4YFCxZM3WF/++23R/49+uijhV35yI3DhQsXCiGfo1C3dee7nn33F8P4wEcIQAACEJhOAMFOhdQS8C0gfPdXG0AADVwEu+x8Hz16tBDP9iNny+Vau+MuP1+7ds3s27fPbN++fSSc646tVHf07TEYuTHYvHnzVMF+4sSJ254GHDlypPDJ7rzbJwcBoB7cBd/17Lu/wYFgEAIQgAAEvBNAsHtHml6HvgWE7/5iIF53JKb8pU+JR4S73c22x1VsnHJk5pVXXjFyjd3prhPsVeHfRLDv379/9AVU68OyZcuKnf3r16/POeoTQy58++i7nn335zte+oMABCAAgeEJINiHZx6dRd8Cwnd/MQCtE+w2BtvOCuLXXnttzg67bXfr1q05R1PqBLvPHfYy72pcMeTCt4++69l3f77jpT8IQAACEBieAIJ9eObRWfQtIHz3FwPQ8hlyu3Nuz59Xd6nLu+HlIyfjzrC77rD3fYadIzGz3sowx/HhDR4dQQACEEiUAII90cT6DMu3gPDdn89Y++zLHnuR3fPVq1ebN954Y+xbYsSHsgCe9pYYV8Eu7cpvibE7+PKGGpfXOtqddOmn/BYbdtiN8V3Pvvvrs6bpGwIQgAAEhiGAYB+Gc9RWfAsI3/1FDRfnoyfgu5599xc9YAKAAAQgAAHew04N1BPwLSB891cfQfotqu9YL0ds391ed849fUr9ROi7nn3310/U9AoBCEAAAkMSYId9SNqR2vItIHz3FylW3E6EgO969t1fIpgJAwIQgEDWBBDsWaffLXjfAsJ3f25R0AoC/RDwXc++++snanqFAAQgAIEhCSDYh6QdqS3fAsJ3f5Fixe1ECPiuZ9/9JYKZMCAAAQhkTQDBnnX63YL3LSB89+cWBa0g0A8B3/Xsu79+oqZXCEAAAhAYkgCCfUjakdryLSB89xcpVtxOhIDvevbdXyKYCQMCEIBA1gQQ7Fmn3y143wLCd39uUdAKAv0Q8F3PvvvrJ2p6hQAEIACBIQkg2IekHakt3wLCd3+RYsXtRAj4rmff/SWCmTAgAAEIZE0AwZ51+t2C9y0gfPfnFgWtINAPAd/17Lu/fqKmVwhAAAIQGJIAgn1I2pHa8i0g7rvvPnP16tVIaeA2BOYSWLRokfnFL37hDYvv8ebNMTqCAAQgAAE1Agh2NfTxGPYtIHz350pSy66rf7SLk4DvuvLdX5xU8RoCEIAABMoEEOzUQy0B3wLCd3+1AbzfQMuuq3+0i5OA77ry3V+cVPEaAhCAAAQQ7NRAIwK+BYTv/lyD0bLr6h/t4iTgu6589xcnVbyGAAQgAAEEOzXQiIBvAeG7P9dgtOy6+ke7OAn4rivf/cVJFa8hAAEIQADBTg00IuBbQPjuzzUYLbuu/tEuTgK+68p3f3FSxWsIQAACEECwUwONCPgWEL77cw1Gy66rf7SLk4DvuvLdX5xU8RoCEIAABBDs1EAjAr4FhO/+XIPRsuvqH+3iJOC7rnz3FydVvIYABCAAAQQ7NdCIgG8B4bs/12C07Lr6R7s4CfiuK9/9xUkVryEAAQhAAMFODTQi4FtA+O7PNRgtu67+0S5OAr7rynd/cVLFawhAAAIQQLBTA40I+BYQvvtzDUbLrqt/tIuTgO+68t1fnFTxGgIQgAAEEOzUQCMCvgXEtP4uX75s1q1bZy5evDjHx7Nnz5oVK1YY+/dt27aZ9evXF23OnTtnVq5caTZt2mQOHDhg5s2bNzY+33E0guihsY1TutqzZ495+OGHi7jtzzt27Ohs5datW2br1q1FP+NYHjt2zLz44ovm+PHjZsmSJZ3tpdCB77ry3V8KjIkBAhCAQO4E+C+d5l4BDvH7FhAugt0Kcisgr169akQsXr9+vRD09u9WxK5Zs6b4+/z58ydG5DsOB3Rem+zdu9f84Ac/GInl6s9ejU3oDMF+OxjfdeW7vyHqAhsQgAAEINAvAQR7v3yT6N23gGgi2AWgFeWyy75gwYKRYF++fHnx73vuuadWrEs/dXFUd+/Ldsu7+3b33+76l32Uf5dvHmwfsiO+c+fOYmd82k74jRs3iicHJ0+eLGrn6NGjxc8ilDds2DCqJ9uX/YX4snTp0jnXVp9KrF692rzxxhvmwQcfnPgkYtwOu9wYiL1ly5YZ2wc77B8M7bq6ajoJ+O6vqX3aQwACEIBAeAQQ7OHlJDiPfAsIH4L98ccfL0TtL3/5S+fjGXVxTBPs999//5yjIvv37y9uJKq7/o8++uicdhcuXCiOrdQJdUm6FetycyCivnrDMG2HfeHChXPsnjhxYnR0RfqWG5tpQt0WXVWwW//lxsHGdv78eWfmwRVzDw7V1VVTk777a2qf9hCAAAQgEB4BBHt4OQnOI98Coolgn3QkpnzG3UUMC9S6OFwE++HDh287K189JiI/HzlypBDzly5dKgR7eTd+UoKrAr0qnuUmYdKRGCvK7VEhG8uhQ4fmPJWw5/4n+TDOpr0xkeNGHIm5nVxdXTUd0L77a2qf9hCAAAQgEB4BBHt4OQnOI98CwkWwlwW5HMWwRzCsEBVI8rvXXnutOK7hIojr4qg7ElP+0qfYt19yFSEtPpQ/1mc5c+8q2KtiuIlgt3aqxSM74/boUPmLugh2f8Osrq6aWvLdX1P7tIcABCAAgfAIINjDy0lwHvkWEC6CfZK4rIpq+7PLOfa6OOoEu01M+Zy5CGL5THpzSnXXfFpyfe6wl+2Me7NOE8Fe3tVnh/12cnV11XRA++6vqX3aQwACEIBAeAQQ7OHlJDiPfAsIn4JdYNkvZNovaE4CWBdH9Qy5/bJl+Qud486Xl78IO+kMu8sTgL7PsLfZYecMe/1wrKur+h7mtvDdX1P7tIcABCAAgfAIINjDy0lwHvkWEL4FuxW6dV9AdYmj/DYW+2aX6ttW7HGd8tn58nGZcW+JcRHskvjqW2LK19W91nHStV122OWd9pYJb4kZPzRd6qrJoPbdXxPbtIUABCAAgTAJINjDzEtQXvkWEL77c4WlZdfVP9rFScB3XfnuL06qeA0BCEAAAmUCCHbqoZaAbwHhu7/aAN5vUGd39+7drl21aveb3/ymeBXlW2+9ddv1cgb/c5/7XPFGl74/b7/9tvnOd74z1szMzIz55Cc/6eTCV77yFfPRj37UqW3Kjerqqmnsvvtrap/2EIAABCAQHgEEe3g5Cc4j3wLCd3+uwOrsfuYzn3HtinbGFG/oQbDXvy60abHU1WnT/mgPAQhAAALxE0Cwx5/D3iPwLSB89+cKQMuuq3+0i5OA77ry3V+cVPEaAhCAAATKBBDs1EMtAd8Cwnd/tQG830DLrqt/tIuTgO+68t1fnFTxGgIQgAAEEOzUQCMCvgWE7/5cg9Gy6+of7eIk4LuufPcXJ1W8hgAEIAABBDs10IiAbwHhuz/XYLTsuvpHuzgJ+K4r3/3FSRWvIQABCEAAwU4NNCLgW0D47s81GC27rv7RLk4CvuvKd39xUsVrCEAAAhBAsFMDjQj4FhC++3MNRsuuq3+0i5OA77ry3V+cVPEaAhCAAAQQ7NRAIwK+BYTv/lyD0bLr6h/t4iTgu6589xcnVbyGAAQgAAEEOzXQiIBvASH98YFASgRmZ2e9heN7vHlzjI4gAAEIQECNAK91VEMfj2HfAsJ3f64ktey6+ke7OAn4rivf/cVJFa8hAAEIQIAddmqgEQHfAsJ3f67BaNl19Y92cRLwXVe++4uTKl5DAAIQgACCnRpoRMC3gPDdn2swWnZd/aNdnAR815Xv/uKkitcQgAAEIIBgpwYaEfAtIHz35xqMll1X/2gXJwHfdeW7vzip4jUEIAABCCDYqYFGBHwLCN/9uQajZdfVP9rFScB3XfnuL06qeA0BCEAAAgh2aqARAd8Cwnd/rsFo2XX1j3ZxEvBdV777i5MqXkMAAhCAAIKdGmhEwLeA8N2fazBadl39o12cBHzXle/+4qSK1xCAAAQggGCnBhoR8C0gfPfnGoyWXVf/aBcnAd915bu/OKniNQQgAAEIINipgUYEfAsI3/25BqNl19U/2sVJwHdd+e4vTqp4DQEIQAACCHZqoBEB3wLCd3+uwWjZdfWPdnES8F1XvvuLkypeQwACEIAAgp0aaETAt4Co62/v3r1m586dc3xctmyZOX78ePG7Z555xrz00ktmyZIlxc+XL18269atM4899pjZsWPHxNjq7E66UPrftWuXOXjwoJk/f34jdkM3PnfunDly5Ig5cOCAmTdv3sj8jRs3zPr16ws+K1asGNqtpO21ratJUHz3lzR8goMABCCQCYE7ZmdnZzOJlTBbEvAtIOr6E8Eun3HiW8RzWbBbsX7o0KFaIVpnNwXBPikGBHvL4ne4rG1dIdgd4NIEAhCAAAQKAgh2CqGWwNCCxFWwL1iwoNGucV0cYnfx4sVFn/I5duyYuXLlilm7du2cHXZpd+3atdt2scsgqzvdti+5CZG/rVy5smi+Zs2awo7s3N+6dcts3brVHD58uPjb2bNni5sQe5NSDNg77hi1H5e4sl35u+1v06ZN5urVq+yw11Z78wZ1ddW0R9/9NbVPewhAAAIQCI8Agj28nATnkW8BUdefi2CXIzPSbuPGjSOBXQeuzu44sSv9y42BPRLz8ssvzxH1k2xOEuybN282W7ZsKfqTIz0i1uUjNwnluOX6p556anQMSI78uDxFKNvdv3//6MbiwoULxU2CvQmoY8Xf3QnU1ZV7T79r6bu/pvZpDwEIQAAC4RFAsIeXk+A8mpmZMadPn/bq17STWOPOsJd3m0W8Xrx4sfDn6NGj3gR7+biN9G1F+vXr14t/P/DAA+a9996bek7eQnIV7LZ99ciK3W23NwzVc/t1Nwr79u0z27dvL25oZJe+3B9n2L2WsneBjWD3mx96gwAEIJACAQR7ClmMLIY6QVK3wy6Cfdu2bWb58uXFl01ddp5ddi7LolaOj8hxGDnCYs/JP/7448W/n3/++dovn047EmP7k5sOOaoiXxC9efNmceNx8uTJOdmUGxKJ0/VLr9au+P3EE0+MjsAg2PsbJHX13NSy7/6a2qc9BCAAAQiERwDBHl5OkveoTpDUCfbybrMIVGlvz4FPg1dnV661Z83l3w8//PDoDLkVzK+//vpIyE+zVRXsk2Ky9qpHZcp9N3lLjbXLDvtww8ilrpp447u/JrZpCwEIQAACYRJAsIeZl6S9qhMkTQS7gHL5EqjLDru0sbvf99xzz+gmoCyYpU35DPqkRJXPoNsvx8pRlOoXWCedYS+//aZ8hr7utZLlG4UTJ06YM2fOFDv4nGHvb0jV1XNTy777a2qf9hCAAAQgEB4BBHt4OUneozpB0lSw2/PfixYtmvrmljq7At4eHbn33ntHZ9WrO9yT3nVeTZw9iy9vgpH/2fPvItI3bNhQNLdHYuSd6dW3xNjz+W122EWky6f8lpi7777bfPazn619/WXyBeg5QJe6amLSd39NbNMWAhCAAATCJIBgDzMvSXulJUi07CadTILjS6fUAAQgAAEI9E4Awd47YgxUCWgJZ592y18crcZX3jX3nX0tu77jSKk/n3UlXHz3lxJrYoEABCCQKwEEe66ZV4xbS5Bo2VVEjekBCPiuK9/9DYAAExCAAAQg0DMBBHvPgOn+dgJagkTLLjWQNgHfdeW7v7TpEx0EIACBPAgg2PPIc1BRagkSLbtBwccZ7wR815Xv/rwHTIcQgAAEIDA4AQT74MgxqCVItOyS8bQJ+K4r3/2lTZ/oIAABCORBAMGeR56DilJLkGjZDQo+zngn4LuufPfnPWA6hAAEIACBwQkg2AdHjkEtQaJll4ynTcB3XfnuL236RAcBCEAgDwII9jzyHFSUWoJEy25Q8HHGOwHfdeW7P+8B0yEEIAABCAxOAME+OHIMagkSLbtkPG0CvuvKd39p0yc6CEAAAnkQQLDnkeegotQSJDMzM+bUqVNBscCZ+An4rmff/cVPmAggAAEIQADBTg0MTkBLkGjZHRwwBgcl4LuufPc3KAyMQQACEIBALwQQ7L1gpdNpBLQEiZZdqiFtAr7rynd/adMnOghAAAJ5EECw55HnoKL8/+2dwUtdRxvGZ+vaLAIBKW50J0hJCxqIWdQ/IKALlUBTkFARLAmUgsZGUoQEBLEBoTt1YReuzaYWjNCV4KJQoYgEXBR0U0LdfrwDc7/jzb3ONffceefM/O4mGs+dZ97f8wrPnbznRCuQaOlGBZ/NlE6g7L4qe73SC2ZBCEAAAhAIToDAHhw5glqBREsXx9MmUHZflb1e2vSpDgIQgEAeBAjsefgcVZVagURLNyr4bKZ0AmX3VdnrlV4wC0IAAhCAQHACBPbgyBHUCiRaujieNoGy+6rs9dKmT3UQgAAE8iBAYM/D56iq1AokWrpRwWczpRMou6/KXq/0glkQAhCAAASCEyCwB0eOoFYg0dLF8bQJlN1XZa+XNn2qgwAEIJAHAQJ7Hj5HVaVWINHSjQo+mymdQNl9VfZ6pRfMghCAAAQgEJwAgT04cgS1AomWLo6nTaDsvip7vbTpUx0EIACBPAgQ2PPwOaoqfYFkaWnJLCwsXNnzwMCA2d7etn83OztrVldXTV9fn/3++PjYjI+Pm4cPH5r5+fmmtfp0m71R1l9cXDRra2umu7u7bZYHBwdmeHjYSE3Ly8vm+++/N0dHR+bdu3dmaGiorfUvLy/N3NycmZqa+mitra0ts7+/b1ZWVkxXV1dbOrz5/wQ+ta+aMSx7PbyCAAQgAIHqEyCwV9/DylXgCyQS2OXVKHxLeC4GdhfWf/75Z2/Y9emGCuwSnOU1MTFhJLz/9ttv137QKMtgAntZJK+u86l9RWDvjB+sCgEIQCBFAgT2FF2NvCZfwGk1sN+6dcuGXgn2rZxMt6Lb29tr15SXBNyTkxMzNjZ25YRd9nd2duY9qXYn6bLW9PS0vX5nZ8dMTk7a9b/55hvzyy+/2K/dzw8PD+3pe/Hv5DRcNP/880/7rwybm5u1PdZbXX/CXjzN/+qrr8y///7r3Xfk7RPd9nx9ddMNl73eTfW5HgIQgAAE4iNAYI/Pk+R35AskrQR2GZmR62T0wwVsHzifroTbjY0NG2jl5UZL5IOBG4l58+aNKYb6ZprFk//BwUG71p07d+yHC/dBQL4uar5//772rwc9PT1X3tPqh4RiYJd9y6iQ/OuD24Psl5EYX6fc7Oe+vrrZasaUvd5N9bkeAhCAAATiI0Bgj8+T5HfkCySNZtjdfLcLwjLzLa/rTpvrQfp0i+M28l4X0s/Pz+3Xd+/eNR8+fGhpfKUYxOWEXL6XuiSs7+7u2pP7+sAup+/FGfPiGq9fv7blXDejLz8vBnb53n0AcXsofp98owUqUPqqzNf9+/fN3t5emUuyFgQgAAEIVJwAgb3iBlZx+77g7Dthl1PjZ8+emc8//7x2glzGSEwx7J6entZCtfuQ8OjRI3uD68uXL703n9bPixdvXL0usLtxGefr6OioDfmtnuzX19DsAwA3nZb3m+Pr5/KUWAkCEIAABHIlQGDP1XnFun0BxxfYizedFk+ufU9w8ekKEjeuIl8/ePDAzsY3C9vXIfzUE3Z38l6/tjBpZRSHE/bwjd1KX4XfFYoQgAAEIJASAQJ7Sm5WpBZfwLlJYJeSW53v9unKWu40/fbt2za8y4eAYmCXa2ZmZuyIjHusZCPs7c6wy9rFumQk5qaBvb+/v3ZTLjPsnfvlaKWvOqfOyhCAAAQgkAMBAnsOLkdWoy/g3DSwX1xc2GD62WefXXtDpU9XMLkTaneDqAvxxeew15+eN8Pb6CkxMorS7KZTN2funhLjxmHkQ8OnnLDLvw4U97C+vm7+/vtv8+O0Ow7gAAAMz0lEQVSPP/Ic9hJ/J1rpqxLlWAoCEIAABDIkQGDP0HTtkrUCjpauNm/0O0uAvuosX1aHAAQgAAFjCOx0QXACWgGnTN36p9UUIbpnqnfqxs5GT9Fx+mX8b6nBG6LigmX2VcVRsH0IQAACEOgQAQJ7h8CybHMCWgFHS5deSJsAfZW2v1QHAQhAIAYCBPYYXMhsD1oBR0s3M3uzK5e+ys5yCoYABCAQnACBPThyBLUCjpYujqdNgL5K21+qgwAEIBADAQJ7DC5ktgetgKOlm5m92ZVLX2VnOQVDAAIQCE6AwB4cOYJaAUdLF8fTJkBfpe0v1UEAAhCIgQCBPQYXMtuDVsDR0s3M3uzKpa+ys5yCIQABCAQnQGAPjhxBrYCjpYvjaROgr9L2l+ogAAEIxECAwB6DC5ntQSvgaOlmZm925dJX2VlOwRCAAASCEyCwB0eOoFbAGRkZMXt7exgAgVIJaPVzqUWwGAQgAAEIRE2AwB61PWluTivgaOmm6SJVOQL0Fb0AAQhAAAKdJkBg7zRh1v+IgFbA0dKlBdImQF+l7S/VQQACEIiBAIE9Bhcy24NWwNHSzcze7Mqlr7KznIIhAAEIBCdAYA+OHEGtgKOli+NpE6Cv0vaX6iAAAQjEQIDAHoMLme1BK+Bo6WZmb3bl0lfZWU7BEIAABIITILAHR46gVsDR0sXxtAnQV2n7S3UQgAAEYiBAYI/Bhcz2oBVwtHQzsze7cumr7CynYAhAAALBCRDYgyNHUCvgaOnieNoE6Ku0/aU6CEAAAjEQILDH4EJme9AKOFq6mdmbXbn0VXaWUzAEIACB4AQI7MGRI6gVcLR0cTxtAvRV2v5SHQQgAIEYCBDYY3Ahsz1oBRyf7vHxsVlcXDRra2umu7v7iisHBwdmY2PDrKysmK6urhs5dt26zRZyej/99JP54YcfzNTUlBkaGmp4+cXFhZmZmbF77+vru9HeuLh9Ar6+al+BFSAAAQhAIHcCBPbcO0Chfq2A49ONMbC38gGBwK7QxAVJX1/p7g51CEAAAhBIgQCBPQUXK1aDVsDx6brAfvfuXfPdd9+ZgYEBs729bU+tiyfs//33n5mYmDBv37615F+8eGHm5+ft1xKe3c9GR0fN1taWOT8/v3Jyv7S0ZM7Ozq49rW92wi7vXVhYqOk+ffrUzM3NmfX19Sv7rVhLVHq7vr6qdHFsHgIQgAAEoiBAYI/Chrw2oRVwfLoS2MfHx83Dhw9tAJewvb+/b4P14eGhHYlxIyr37t2zwVzeMzs7a1ZXV01PT48Nz258Rd5/cnJixsbGaoH9zZs3pre31773ulejwC7Xu7Ec+fr58+fm8ePH5tatW4zEKP4K+fpKcWtIQwACEIBAIgQI7IkYWaUytAKOT7cYvuVUvThqIqfkjWbYi9eIB41m4Isn9x8+fKidxrcT2Itz9IzE6Ha/r690d4c6BCAAAQikQIDAnoKLFatBK+D4dOtn2JsFdjltHx4erlF3ozMS6mVkRU7WizetupP7R48e2RP5ly9ffnRTa72FzUZiZO3JyUl7+ebmpj2pJ7Dr/gL4+kp3d6hDAAIQgEAKBAjsKbhYsRq0Ao5Pt/6Evfi9O2GXURkZQ5E/5aktNzlhl6fP7O7u2jEZN/PezDrfU2IuLy9r4zf9/f2MxCj+Dvj6SnFrSEMAAhCAQCIECOyJGFmlMrQCjk/XnYQ/e/bMnlw3mmGvD+xyzatXr+zNqTJLLu9zYd69/8mTJ2Z5edk+LlJerTyCsVFgPz09rYV9CezMsMfR9b6+imOX7AICEIAABKpMgMBeZfcqunetgOPTrX9KjHvKi4y3FJ8Ss7OzUxtLkaezyIiMu9HUhf6joyPT7CkxrTzTvVFgHxwcrD0RRqx3IzHutP2PP/6oPdWmoq1RyW37+qqSRbFpCEAAAhCIigCBPSo78tiMVsDR0s3D1XyrpK/y9Z7KIQABCIQiQGAPRRqdGgGtgKOl28j64kl8/c+np6c/6X9UpcV0CMTUVzoEUIUABCAAgU4TILB3mjDrf0RAK+Bo6dICaROgr9L2l+ogAAEIxECAwB6DC5ntQSvgaOlmZm925dJX2VlOwRCAAASCEyCwB0eOoFbA0dLF8bQJ0Fdp+0t1EIAABGIgQGCPwYXM9qAVcLR0M7M3u3Lpq+wsp2AIQAACwQkQ2IMjR1Ar4Gjp4njaBOirtP2lOghAAAIxECCwx+BCZnvQCjhaupnZm1259FV2llMwBCAAgeAECOzBkSOoFXC0dHE8bQL0Vdr+Uh0EIACBGAgQ2GNwIbM9aAUcLd3M7M2uXPoqO8spGAIQgEBwAgT24MgR1Ao4IyMjZm9vDwMgUCoBrX4utQgWgwAEIACBqAkQ2KO2J83NaQUcLd00XaQqR4C+ohcgAAEIQKDTBAjsnSbM+h8R0Ao4Wrq0QNoE6Ku0/aU6CEAAAjEQILDH4EJme9AKOFq6mdmbXbn0VXaWUzAEIACB4AQI7MGRI6gVcLR0cTxtAvRV2v5SHQQgAIEYCBDYY3Ahsz1oBRwt3czsza5c+io7yykYAhCAQHACBPbgyBHUCjhaujieNgH6Km1/qQ4CEIBADAQI7DG4kNketAKOlm5m9mZXLn2VneUUDAEIQCA4AQJ7cOQIagUcLV0cT5sAfZW2v1QHAQhAIAYCBPYYXMhsD1oBR0s3M3uzK5e+ys5yCoYABCAQnACBPThyBLUCjpYujqdNgL5K21+qgwAEIBADAQJ7DC5ktgetgNOK7tLSkllYWDDT09NmZWXFdHV1dcSdg4MDs7GxYTVev35tent7zcTExCdpHR8fm8XFRbO2tmb++uuv2rrN9i41tqP3SZtM+E2t9FXC5VMaBCAAAQgEIEBgDwAZiasEtAKOT/fy8tI8f/7cPH782PT19QWzrd0AXQzs3d3d3n23q+cVyOwCX19lhoNyIQABCECgAwQI7B2AypLXE9AKONfpSlifm5sz6+vrdvPv3r0z/f399tT77du39u9evHhh5ufnTX3g3draMicnJ/ZnEp7Hx8fN0dGRGR0dNfIzCdFyoi7v/+eff8yXX35pxsbGzK+//mq++OIL8/XXX9v1Nzc3rZ5cOzw8bP+ulZP+Zifsh4eHtXXcXnZ3d83k5OQVPfq1PQJa/dzernk3BCAAAQhUiQCBvUpuJbJXrYDj03WhfWpqygwODtoAf+/ePRuiJRTPzs6a1dVVc35+Xhs7EUvkOnmPC/jytbxHgv3Z2Zkde5Hw/O2335rt7W17et9sJKao09PTY9e+c+eO/TDQ7NUosMv1T58+taMyoicfHOTl9sVITHm/TL6+Kk+JlSAAAQhAIFcCBPZcnVesWyvg+HSLgX1oaOgKoYuLCzMzM2MDsLxceJev3fy4BHn3tZyq14d8CfDFE/dGM+zy8/39/dr8fDHYN5tJbyWwF4thJKbc5vf1VblqrAYBCEAAAjkSILDn6LpyzVoBx6dbH9iLoymCbGBgwJ6Qu5NvOUk/PT2tjcPI9cVQXgz5xVN5Cd7NTtglsLuRFWdTcbSmkXXNRmLev39fG88pjtYQ2Mv9BfD1VblqrAYBCEAAAjkSILDn6LpyzVoBx6dbDOxuvEVGS+S0vRi+3YiJzK3L68GDB/aa+ps/m43R+AK7m4dv1aZWnhJTnLMnsLdKtrXrfH3V2ipcBQEIQAACEGhOgMBOdwQnoBVwfLrXBXYJvK9evarNoLubS2/fvl0bc5FQLzPizWbY3QjMdYG9GPLlg0FxDv4mIzFPnjwxy8vL9lGPMp7DDHvn2tzXV51TZmUIQAACEMiFAIE9F6cjqlMr4Ph060diiuMp8vQYuXFUwricprtr628Ive4pMc0C+87Ojh2DafSUGN84jNja7ITdrSvXFEdiXF1OL6LWqORWfH1VyaLYNAQgAAEIREWAwB6VHXlsRivgaOnm4Wq+VdJX+XpP5RCAAARCESCwhyKNTo2AVsDR0m3X+vpnxBfXczfChvyPntqtJ7X3V7WvUvOBeiAAAQikTIDAnrK7kdamFXC0dCO1gW2VRIC+Kgkky0AAAhCAQFMCBHaaIzgBrYCjpRscMIJBCdBXQXEjBgEIQCBLAgT2LG3XLVor4Gjp6tJGvdME6KtOE2Z9CEAAAhAgsNMDwQloBRwt3eCAEQxKgL4KihsxCEAAAlkSILBnabtu0VoBR0tXlzbqnSZAX3WaMOtDAAIQgACBnR4ITkAr4GjpBgeMYFAC9FVQ3IhBAAIQyJIAgT1L23WL1go4Wrq6tFHvNAH6qtOEWR8CEIAABAjs9EBwAloBR0s3OGAEgxKgr4LiRgwCEIBAlgQI7Fnarlv0yMiI+f3333U3gToESiJw//59s7e3V9JqLAMBCEAAAhD4mMD/AB+63URPQFtkAAAAAElFTkSuQmCC;" parent="1" vertex="1"><mxGeometry x="20" y="20" width="748" height="653" as="geometry"/></mxCell><mxCell id="2" value="" style="shape=step;perimeter=stepPerimeter;whiteSpace=wrap;html=1;fixedSize=1;" vertex="1" parent="1"><mxGeometry x="180" y="540" width="120" height="80" as="geometry"/></mxCell></root></mxGraphModel></diagram></mxfile>